<svg width="553" height="553" viewBox="0 0 553 553" fill="none" xmlns="http://www.w3.org/2000/svg">
<path d="M284.024 374.423L249.554 390.658C249.554 390.658 221.502 326.134 195.421 275.27C186.715 258.306 178.233 242.866 171.085 231.843C170.546 231.077 170.068 230.269 169.655 229.429C168.752 227.51 168.235 225.43 168.135 223.312C168.035 221.193 168.354 219.076 169.072 217.08C169.79 215.084 170.895 213.25 172.322 211.681C173.749 210.112 175.472 208.84 177.391 207.937C179.31 207.034 181.388 206.516 183.507 206.416C185.625 206.317 187.743 206.634 189.74 207.353C191.734 208.072 193.57 209.176 195.139 210.603C196.708 212.031 197.98 213.753 198.883 215.672C198.979 215.895 199.106 216.149 199.2 216.404C199.296 216.656 212.068 228.984 223.218 241.596C230.017 249.283 236.181 257.005 238.5 261.864C239.294 263.549 240.151 265.423 241.073 267.457C256.354 301.385 284.024 374.423 284.024 374.423Z" fill="#F4A49D"/>
<path opacity="0.35" d="M241.073 267.457L187.255 238.769C189.766 238.831 192.879 239.309 196.468 240.039C200.059 240.771 211.146 241.978 222.488 243.09L223.218 241.596C230.017 249.285 236.181 257.005 238.5 261.866C239.294 263.549 240.151 265.423 241.073 267.457Z" fill="#011230"/>
<path d="M288.155 246.647C301.682 246.647 312.65 235.681 312.65 222.153C312.65 208.627 301.682 197.659 288.155 197.659C274.627 197.659 263.661 208.627 263.661 222.153C263.661 235.681 274.627 246.647 288.155 246.647Z" fill="#DADADA"/>
<path d="M266.775 401.618C277.302 401.618 285.836 393.083 285.836 382.556C285.836 372.029 277.302 363.496 266.775 363.496C256.247 363.496 247.713 372.029 247.713 382.556C247.713 393.083 256.247 401.618 266.775 401.618Z" fill="#FFD0BC"/>
<path d="M199.696 226.988C202.144 218.453 197.209 209.552 188.674 207.104C180.141 204.658 171.239 209.593 168.791 218.125C166.344 226.66 171.279 235.563 179.813 238.009C188.346 240.457 197.25 235.523 199.696 226.988Z" fill="#F4A49D"/>
<path d="M266.775 401.618C277.302 401.618 285.836 393.083 285.836 382.556C285.836 372.029 277.302 363.496 266.775 363.496C256.247 363.496 247.713 372.029 247.713 382.556C247.713 393.083 256.247 401.618 266.775 401.618Z" fill="#F4A49D"/>
<path d="M322.499 422.3L316.207 413.882L246.856 450.607H179.536L177.947 460.962C177.823 461.751 177.872 462.559 178.09 463.327C178.307 464.096 178.689 464.808 179.208 465.414C179.728 466.022 180.372 466.509 181.098 466.843C181.823 467.176 182.613 467.35 183.412 467.35H250.985L282.627 450.607L320.624 430.496C321.332 430.125 321.951 429.605 322.44 428.973C322.926 428.341 323.273 427.609 323.45 426.829C323.628 426.052 323.636 425.242 323.472 424.461C323.306 423.679 322.974 422.942 322.499 422.3Z" fill="#DADADA"/>
<path d="M254.161 410.8L266.362 404.35L249.936 391.452L245.394 398.824L254.161 410.8Z" fill="#F4A49D"/>
<path d="M308.71 403.779L306.519 400.824L286.662 374.169C286.506 373.966 286.288 373.819 286.041 373.749C285.794 373.677 285.532 373.686 285.291 373.775C285.051 373.863 284.845 374.027 284.703 374.241C284.561 374.455 284.491 374.707 284.502 374.964C284.533 375.376 284.533 375.821 284.533 376.267V376.329C284.537 376.479 284.528 376.628 284.502 376.774C284.507 376.934 284.496 377.093 284.471 377.251C284.465 377.463 284.443 377.677 284.406 377.887C284.406 378.012 284.375 378.14 284.375 378.267C284.375 378.394 284.343 378.458 284.31 378.552C284.279 378.648 284.185 379.347 284.089 379.729L283.962 380.141C283.923 380.337 283.87 380.527 283.803 380.713C283.77 380.833 283.728 380.951 283.676 381.063L283.58 381.317C283.549 381.445 283.484 381.572 283.453 381.699L283.263 382.112L283.072 382.556L282.85 383.034L282.596 383.447L282.342 383.859C282.179 384.156 282.001 384.442 281.801 384.717L281.197 385.542L280.976 385.797L280.817 386.02L280.498 386.368L280.181 386.687L279.864 387.004L279.768 387.1L279.577 387.29L279.291 387.513L279.164 387.64L278.911 387.83L278.719 387.989L278.465 388.212L278.306 388.307L278.052 388.497L277.831 388.656L277.195 389.069C277.099 389.141 276.992 389.194 276.878 389.227L276.4 389.513L261.755 397.266C260.74 397.784 259.676 398.199 258.577 398.505C257.077 398.908 255.525 399.08 253.971 399.013H253.558C252.395 398.931 251.245 398.717 250.127 398.378H249.969C248.872 398.029 247.816 397.561 246.822 396.98C245.086 395.92 243.565 394.54 242.343 392.914L227.508 416.486L186.779 439.994C183.617 441.821 181.241 444.752 180.108 448.223C179.85 449.001 179.659 449.797 179.536 450.607H246.856L310.712 416.803L316.239 413.88L308.71 403.779Z" fill="#50A060"/>
<path d="M244.726 389.037L217.532 432.402C220.042 433.976 223.077 434.488 225.965 433.829C228.855 433.167 231.364 431.386 232.94 428.875L248.253 404.446C249.827 401.933 250.339 398.901 249.678 396.011C249.018 393.122 247.235 390.613 244.726 389.037Z" fill="#50A060"/>
<path d="M223.442 434.437C221.296 434.431 219.193 433.827 217.373 432.689C217.336 432.667 217.307 432.636 217.281 432.603C217.257 432.568 217.241 432.529 217.231 432.487C217.222 432.446 217.222 432.402 217.229 432.361C217.239 432.319 217.255 432.28 217.277 432.243C217.298 432.21 217.323 432.179 217.357 432.155C217.388 432.131 217.425 432.114 217.464 432.105C217.502 432.096 217.543 432.096 217.582 432.103C217.62 432.111 217.659 432.125 217.69 432.149C220.133 433.666 223.077 434.159 225.878 433.515C228.682 432.874 231.117 431.148 232.654 428.717L247.998 404.256C249.517 401.814 250.008 398.87 249.366 396.068C248.723 393.264 246.997 390.829 244.568 389.292C244.533 389.273 244.502 389.246 244.478 389.214C244.454 389.183 244.437 389.146 244.428 389.107C244.419 389.067 244.419 389.028 244.426 388.988C244.433 388.949 244.45 388.912 244.472 388.879C244.492 388.84 244.52 388.807 244.553 388.779C244.586 388.752 244.625 388.731 244.668 388.72C244.71 388.707 244.752 388.704 244.797 388.709C244.839 388.715 244.879 388.73 244.916 388.752C247.493 390.379 249.318 392.962 249.998 395.931C250.677 398.901 250.151 402.02 248.539 404.604L233.195 429.036C232.4 430.319 231.36 431.43 230.133 432.31C228.905 433.187 227.517 433.814 226.046 434.151C225.191 434.339 224.317 434.435 223.442 434.437Z" fill="#011230"/>
<path d="M232.409 403.375L231.633 404.612C231.027 405.579 231.318 406.853 232.284 407.46L242.979 414.168C243.947 414.774 245.22 414.483 245.827 413.517L246.603 412.278C247.209 411.312 246.916 410.038 245.95 409.432L235.255 402.722C234.29 402.116 233.016 402.409 232.409 403.375Z" fill="#DADADA"/>
<path d="M240.66 421.823L239.866 423.063C239.578 423.524 239.119 423.852 238.59 423.978C238.059 424.103 237.502 424.013 237.038 423.731L236.402 423.316L226.968 417.408L226.332 416.995C225.877 416.702 225.554 416.239 225.434 415.71C225.316 415.181 225.41 414.628 225.696 414.168L226.459 412.929C226.754 412.464 227.218 412.136 227.753 412.011C228.288 411.885 228.85 411.976 229.318 412.262L229.923 412.674L239.39 418.616L239.993 418.997C240.225 419.135 240.426 419.322 240.584 419.539C240.745 419.758 240.859 420.007 240.92 420.269C240.983 420.533 240.992 420.805 240.948 421.073C240.902 421.34 240.804 421.594 240.66 421.823Z" fill="#DADADA"/>
<path d="M178.805 455.69C178.721 455.69 178.64 455.655 178.58 455.596C178.521 455.537 178.487 455.456 178.487 455.372C178.482 455.329 178.487 455.285 178.501 455.244C178.515 455.204 178.538 455.167 178.569 455.136C178.6 455.106 178.637 455.082 178.678 455.067C178.719 455.055 178.762 455.049 178.805 455.054H247.936L318.939 417.471C318.976 417.449 319.018 417.434 319.061 417.428C319.105 417.423 319.147 417.427 319.19 417.439C319.23 417.451 319.269 417.471 319.304 417.498C319.337 417.526 319.365 417.559 319.385 417.598C319.418 417.67 319.426 417.753 319.402 417.83C319.378 417.906 319.326 417.97 319.258 418.011L248.19 455.657H178.805V455.69Z" fill="#011230"/>
<path d="M246.854 450.924H179.535C179.451 450.924 179.37 450.89 179.311 450.831C179.251 450.772 179.218 450.691 179.218 450.607C179.213 450.564 179.217 450.52 179.231 450.479C179.246 450.439 179.269 450.402 179.299 450.371C179.33 450.339 179.367 450.317 179.408 450.302C179.449 450.288 179.492 450.284 179.535 450.29H246.76L316.08 413.596C316.115 413.574 316.154 413.559 316.194 413.554C316.235 413.548 316.275 413.552 316.316 413.565C316.355 413.576 316.392 413.596 316.421 413.624C316.452 413.651 316.476 413.685 316.493 413.721C316.515 413.76 316.53 413.801 316.535 413.843C316.541 413.887 316.537 413.93 316.526 413.972C316.513 414.015 316.493 414.053 316.465 414.086C316.438 414.12 316.404 414.147 316.366 414.168L246.981 450.892L246.854 450.924Z" fill="#011230"/>
<path d="M254.638 399.395C253.077 399.399 251.523 399.163 250.032 398.694C249.95 398.667 249.882 398.608 249.842 398.532C249.799 398.455 249.788 398.366 249.81 398.282C249.823 398.243 249.845 398.206 249.875 398.175C249.903 398.143 249.938 398.118 249.976 398.099C250.015 398.082 250.056 398.071 250.098 398.071C250.14 398.07 250.183 398.077 250.223 398.092C252.094 398.676 254.065 398.881 256.019 398.696C257.971 398.51 259.868 397.937 261.597 397.012L276.273 389.26C278.638 388.003 280.624 386.134 282.021 383.848C283.418 381.563 284.176 378.945 284.216 376.267C284.216 376.182 284.249 376.101 284.308 376.042C284.369 375.983 284.448 375.948 284.533 375.948C284.618 375.948 284.699 375.983 284.758 376.042C284.817 376.101 284.85 376.182 284.85 376.267C284.806 379.057 284.013 381.786 282.555 384.167C281.097 386.547 279.025 388.492 276.559 389.8L261.882 397.583C259.654 398.776 257.165 399.397 254.638 399.395Z" fill="#011230"/>
<path d="M216.166 200.232L214.481 200.486C202.695 202.392 191.353 204.649 180.901 206.776C177.891 207.403 175.122 208.877 172.921 211.025C170.72 213.172 169.179 215.904 168.478 218.898C167.777 221.891 167.946 225.023 168.965 227.924C169.984 230.826 171.811 233.375 174.23 235.274C176.274 236.892 178.685 237.984 181.251 238.45C182.37 238.673 183.51 238.769 184.65 238.736C185.519 238.684 186.389 238.695 187.255 238.769C189.766 238.831 192.879 239.309 196.468 240.039C200.059 240.769 211.146 241.976 222.487 243.09C226.586 228.983 224.426 211.922 216.166 200.232Z" fill="#F4A49D"/>
<path d="M224.839 198.931C221.915 199.344 219.025 199.756 216.166 200.232C224.426 211.924 226.586 228.984 222.488 243.09L231.351 243.947C236.466 228.761 234.878 211.034 224.839 198.931Z" fill="#50A060"/>
<path d="M284.565 196.96C279.164 196.357 273.669 196.007 268.109 195.911C261.659 195.817 255.147 196.007 248.634 196.451H248.157C245.012 196.643 241.836 196.929 238.69 197.246L236.149 197.5C232.336 197.913 228.588 198.391 224.839 198.897C234.878 211.003 236.466 228.73 231.351 243.915L249.143 245.567L253.75 246.013L255.718 246.203C259.213 246.52 262.485 246.774 265.599 246.902C281.864 247.665 292.318 246.266 292.318 246.266L292.603 198.04C289.966 197.627 287.265 197.246 284.565 196.96Z" fill="#DADADA"/>
<path d="M231.351 244.266H231.224C231.183 244.251 231.147 244.229 231.115 244.201C231.084 244.172 231.06 244.137 231.042 244.098C231.023 244.061 231.014 244.019 231.012 243.976C231.012 243.934 231.018 243.891 231.034 243.853C236.498 227.681 234.02 210.558 224.584 199.152C224.544 199.124 224.511 199.087 224.488 199.043C224.465 199.001 224.452 198.951 224.45 198.903C224.448 198.853 224.459 198.804 224.479 198.759C224.5 198.715 224.531 198.676 224.57 198.645C224.606 198.614 224.653 198.593 224.7 198.582C224.748 198.571 224.798 198.573 224.846 198.586C224.894 198.597 224.938 198.621 224.975 198.652C225.012 198.686 225.041 198.726 225.062 198.772C229.889 204.586 233.034 212.018 234.083 220.278C235.073 228.293 234.236 236.43 231.637 244.074C231.613 244.131 231.572 244.177 231.523 244.212C231.471 244.245 231.412 244.264 231.351 244.266Z" fill="#011230"/>
<path d="M222.489 243.407H222.393C222.312 243.377 222.243 243.32 222.201 243.243C222.16 243.167 222.149 243.078 222.17 242.994C226.396 228.507 223.948 211.797 215.912 200.391C215.869 200.321 215.851 200.239 215.862 200.156C215.875 200.075 215.913 200.002 215.976 199.946C216.011 199.922 216.05 199.908 216.092 199.898C216.133 199.891 216.177 199.891 216.217 199.9C216.26 199.909 216.299 199.926 216.334 199.95C216.369 199.974 216.398 200.005 216.42 200.042C224.553 211.574 227.062 228.507 222.774 243.184C222.754 243.246 222.717 243.302 222.665 243.34C222.614 243.381 222.553 243.403 222.489 243.407Z" fill="#011230"/>
<path d="M222.487 243.407H222.455C208.033 242.009 199.773 241.025 196.405 240.358C193.038 239.69 189.574 239.15 187.224 239.086C187.181 239.082 187.141 239.071 187.104 239.051C187.067 239.031 187.034 239.005 187.008 238.972C186.98 238.938 186.962 238.902 186.949 238.861C186.938 238.82 186.932 238.78 186.938 238.737C186.938 238.697 186.945 238.656 186.962 238.62C186.979 238.583 187.002 238.549 187.032 238.524C187.061 238.496 187.098 238.476 187.135 238.463C187.174 238.452 187.214 238.446 187.255 238.452C189.638 238.514 192.656 238.927 196.533 239.722C199.867 240.42 208.127 241.373 222.52 242.773C222.597 242.793 222.667 242.837 222.719 242.9C222.771 242.962 222.8 243.04 222.806 243.121C222.791 243.198 222.752 243.267 222.695 243.318C222.638 243.37 222.564 243.401 222.487 243.407Z" fill="#011230"/>
<path d="M469.303 288.519C497.038 336.554 493.702 393.994 465.554 437.582H465.523C460.914 444.756 455.65 451.49 449.797 457.69C440.617 467.495 430.092 475.945 418.536 482.789L418.44 482.852L417.012 483.678L416.344 484.059H416.28C383.45 502.979 344.447 508.082 307.853 498.246C271.261 488.41 240.074 464.439 221.154 431.609C202.234 398.778 197.13 359.774 206.968 323.182C216.804 286.589 240.774 255.401 273.604 236.481H273.669L274.113 236.196L275.702 235.305H275.733C287.424 228.752 299.98 223.875 313.029 220.818C321.358 218.87 329.842 217.668 338.383 217.229C390.199 214.688 441.569 240.516 469.303 288.519Z" fill="#EDF5EF"/>
<path d="M445.191 402.221C439.027 402.221 432.293 400.728 425.303 397.742C390.643 383 358.143 335.887 352.869 292.712C350.106 269.903 355.411 251.635 367.483 242.549C377.459 235.051 391.31 234.479 406.496 240.929C441.187 255.702 473.689 302.815 478.929 345.99C481.726 368.799 476.389 387.067 464.349 396.121C458.948 400.188 452.435 402.221 445.191 402.221ZM386.608 237.115C379.524 237.115 373.139 239.086 367.865 243.056C355.983 251.984 350.772 270.061 353.505 292.616C358.746 335.601 391.056 382.492 425.557 397.17C440.52 403.555 454.149 402.984 463.967 395.612C475.816 386.685 481.058 368.641 478.295 346.053C473.053 303.101 440.743 256.177 406.272 241.532C399.347 238.577 392.707 237.115 386.608 237.115Z" fill="#011230"/>
<path d="M431.34 462.87C422.19 462.87 412.024 460.011 401.032 454.356C394.94 451.169 389.118 447.493 383.622 443.364C363.258 428.241 343.052 405.144 326.755 378.331C310.458 351.518 298.511 321.496 293.778 294.81C293.206 291.601 292.731 288.393 292.38 285.311C290.919 273.081 291.11 262.056 292.92 252.461C294.731 242.867 297.908 235.401 302.578 229.46C305.368 225.818 308.871 222.782 312.871 220.533C312.91 220.511 312.95 220.498 312.992 220.492C313.037 220.485 313.079 220.488 313.122 220.501C313.164 220.512 313.203 220.533 313.236 220.56C313.269 220.588 313.297 220.621 313.317 220.66C313.352 220.732 313.357 220.815 313.333 220.892C313.31 220.968 313.258 221.034 313.19 221.073C309.256 223.285 305.809 226.267 303.055 229.842C293.65 241.914 290.157 261.071 293.016 285.215C293.365 288.297 293.842 291.507 294.414 294.683C304.039 349.103 341.719 411.436 384.003 442.855C389.467 446.964 395.259 450.619 401.318 453.784C414.532 460.614 426.542 463.314 436.962 461.853C441.447 461.267 445.76 459.764 449.639 457.438C449.674 457.414 449.714 457.399 449.755 457.392C449.797 457.383 449.84 457.384 449.88 457.392C449.923 457.401 449.961 457.418 449.996 457.442C450.031 457.466 450.061 457.497 450.083 457.532C450.107 457.569 450.122 457.607 450.129 457.65C450.136 457.69 450.136 457.733 450.127 457.775C450.118 457.816 450.101 457.854 450.077 457.89C450.053 457.925 450.024 457.954 449.987 457.978C446.03 460.345 441.629 461.878 437.058 462.489C435.163 462.745 433.252 462.872 431.34 462.87Z" fill="#011230"/>
<path d="M305.024 497.276C304.991 497.282 304.954 497.278 304.921 497.267C304.889 497.256 304.858 497.237 304.834 497.212C260.135 467.762 218.675 401.904 208.446 344.053C207.419 338.281 206.708 332.46 206.317 326.611C206.317 326.523 206.348 326.44 206.407 326.375C206.466 326.309 206.547 326.27 206.634 326.261C206.719 326.261 206.8 326.294 206.859 326.355C206.92 326.414 206.953 326.495 206.953 326.58C207.331 332.408 208.04 338.209 209.08 343.957C219.279 401.649 260.61 467.316 305.215 496.705C305.276 496.758 305.317 496.834 305.328 496.915C305.339 496.996 305.322 497.079 305.278 497.149C305.214 497.223 305.121 497.267 305.024 497.276Z" fill="#011230"/>
<path d="M392.105 490.318C382.414 490.318 371.867 487.936 360.812 483.234C334.316 471.956 307.885 448.542 286.345 417.281C264.804 386.02 250.73 350.659 246.697 317.715C244.282 297.923 245.648 280.578 250.699 266.153C255.528 252.334 263.757 241.786 274.494 235.624C274.572 235.587 274.659 235.58 274.741 235.602C274.823 235.626 274.893 235.679 274.939 235.75C274.961 235.788 274.976 235.829 274.981 235.871C274.987 235.915 274.983 235.958 274.972 236C274.959 236.043 274.939 236.081 274.913 236.114C274.885 236.148 274.85 236.175 274.812 236.196C252.605 248.904 242.566 278.607 247.331 317.652C255.591 385.48 306.613 459.469 361.033 482.629C382.414 491.748 401.731 492.002 416.853 483.423C416.888 483.403 416.927 483.388 416.968 483.383C417.008 483.377 417.049 483.381 417.087 483.394C417.128 483.405 417.163 483.425 417.194 483.453C417.226 483.481 417.25 483.514 417.266 483.551C417.303 483.619 417.314 483.7 417.298 483.776C417.279 483.851 417.235 483.919 417.17 483.964C409.705 488.19 401.286 490.318 392.105 490.318Z" fill="#011230"/>
<path opacity="0.35" d="M330.089 243.947C312.141 252.144 275.066 285.025 265.567 305.134C249.141 339.986 240.977 457.342 240.977 457.342L202.663 424.048L221.248 257.735L315.636 215.069L330.089 243.947Z" fill="#011230"/>
<path d="M356.396 150.832C356.364 153.849 356.237 156.836 356.045 159.663C355.832 162.882 355.43 166.086 354.838 169.258L351.885 168.781C341.4 167.129 306.644 161.601 306.677 161.569C300.482 138.028 303.341 123.764 311.728 107.816L354.744 105.91C354.744 105.91 355.284 112.931 355.728 122.43C356.141 131.007 356.523 141.65 356.396 150.832Z" fill="#F4A49D"/>
<path d="M454.435 462.361L454.214 462.297C454.153 462.232 454.12 462.148 454.12 462.059C454.12 461.971 454.153 461.886 454.214 461.821C459.941 455.731 465.138 449.161 469.75 442.188C469.75 442.157 469.781 442.157 469.781 442.123L470.607 440.853C485.261 418.162 493.486 391.92 494.402 364.925C494.402 364.88 494.41 364.836 494.428 364.796C494.446 364.755 494.472 364.718 494.505 364.689C494.539 364.657 494.577 364.635 494.62 364.622C494.662 364.608 494.706 364.602 494.751 364.608C494.832 364.622 494.905 364.665 494.959 364.729C495.011 364.794 495.038 364.873 495.036 364.956C494.115 392.064 485.858 418.414 471.147 441.204L470.288 442.538C470.271 442.553 470.258 442.577 470.256 442.601C465.617 449.572 460.411 456.149 454.689 462.266C454.656 462.299 454.616 462.323 454.573 462.339C454.529 462.356 454.483 462.363 454.435 462.361Z" fill="#011230"/>
<path d="M310.902 126.496C316.078 126.496 320.274 122.3 320.274 117.124C320.274 111.948 316.078 107.752 310.902 107.752C305.726 107.752 301.531 111.948 301.531 117.124C301.531 122.3 305.726 126.496 310.902 126.496Z" fill="#F4A49D"/>
<path d="M286.789 169.988C291.966 169.988 296.161 165.792 296.161 160.616C296.161 155.44 291.966 151.244 286.789 151.244C281.613 151.244 277.416 155.44 277.416 160.616C277.416 165.792 281.613 169.988 286.789 169.988Z" fill="#DADADA"/>
<path d="M319.129 121.635C319.129 121.635 316.62 127.735 312.172 136.44C311.157 138.473 310.012 140.665 308.773 142.952C306.581 146.955 304.102 151.276 301.339 155.66C300.29 157.312 299.21 158.996 298.098 160.68C296.987 162.364 296.065 163.698 294.985 165.159C294.544 165.867 294.045 166.536 293.492 167.161C291.899 168.797 289.763 169.795 287.486 169.967C285.21 170.14 282.948 169.475 281.127 168.098C279.306 166.722 278.048 164.727 277.593 162.489C277.14 160.252 277.516 157.925 278.655 155.946L302.705 112.549C303.177 111.728 303.765 110.978 304.452 110.325C305.149 109.654 305.955 109.106 306.836 108.705C308.622 107.845 310.637 107.573 312.587 107.93C314.539 108.287 316.327 109.254 317.693 110.691C319.061 112.128 319.936 113.962 320.194 115.929C320.452 117.896 320.08 119.894 319.129 121.635Z" fill="#F4A49D"/>
<path d="M292.635 153.309C293.597 154.078 294.399 155.029 294.992 156.109C295.588 157.188 295.964 158.373 296.098 159.598C296.235 160.822 296.128 162.062 295.783 163.245C295.44 164.428 294.867 165.532 294.095 166.493C293.33 167.455 292.38 168.255 291.304 168.849C290.227 169.443 289.044 169.819 287.824 169.955C286.601 170.091 285.365 169.984 284.183 169.641C283.003 169.297 281.901 168.724 280.942 167.955C280.942 167.955 251.239 150.608 215.88 113.851C218.42 110.674 222.138 103.844 224.14 101.366C248.983 126.75 274.653 138.886 292.635 153.309Z" fill="#F4A49D"/>
<path d="M237.134 112.93L222.933 100.54L211.622 113.534L226.809 124.653C226.809 124.653 230.621 127.925 236.181 132.436C239.102 128.275 242.153 124.176 245.235 120.078C239.643 115.821 237.134 112.93 237.134 112.93Z" fill="#F4A49D"/>
<path d="M205.491 112.199C205.368 112.415 205.301 112.658 205.296 112.906C205.29 113.155 205.347 113.4 205.462 113.621C205.574 113.842 205.742 114.031 205.946 114.171C206.151 114.311 206.389 114.398 206.634 114.423L216.101 115.472L218.962 110.547L206.698 111.437C206.45 111.456 206.21 111.535 206 111.668C205.79 111.801 205.615 111.983 205.491 112.199Z" fill="#F4A49D"/>
<path d="M207.111 107.021V107.084C206.995 107.284 206.929 107.507 206.914 107.737C206.899 107.967 206.938 108.197 207.028 108.409C207.117 108.621 207.255 108.81 207.428 108.961C207.604 109.111 207.81 109.219 208.033 109.276L225.727 113.788L228.079 109.721L208.7 106.29C208.391 106.224 208.07 106.26 207.784 106.392C207.498 106.523 207.263 106.744 207.111 107.021Z" fill="#F4A49D"/>
<path d="M209.368 103.081C209.246 103.29 209.176 103.526 209.167 103.768C209.156 104.009 209.204 104.25 209.307 104.469C209.41 104.687 209.565 104.878 209.758 105.024C209.95 105.169 210.177 105.266 210.415 105.305L228.713 108.577L231.066 104.511L210.828 102.351C210.54 102.321 210.251 102.374 209.991 102.504C209.733 102.633 209.515 102.833 209.368 103.081Z" fill="#F4A49D"/>
<path d="M212.575 98.3796L212.481 98.5702C212.378 98.7497 212.313 98.9486 212.291 99.1543C212.269 99.3601 212.291 99.5682 212.354 99.7652C212.417 99.9625 212.52 100.144 212.656 100.3C212.793 100.455 212.96 100.58 213.148 100.667L227.158 107.116L229.51 103.05L214.387 97.7125C214.055 97.5914 213.69 97.5919 213.358 97.7141C213.027 97.8364 212.75 98.0721 212.575 98.3796Z" fill="#F4A49D"/>
<path d="M243.615 84.5605H243.55L243.488 84.6875L243.265 85.0687L243.042 85.4501C241.961 87.2927 239.676 91.3274 238.723 92.9476L238.596 93.2017L238.468 93.3923L238.277 93.6783L223.948 118.49L218.547 127.83C218.135 128.561 216.737 128.593 214.831 128.053C213.075 127.529 211.39 126.793 209.812 125.861H209.781C205.65 123.51 202.918 120.523 203.648 119.253L223.281 85.2595L223.377 85.0687L228.682 75.9191C229.477 74.6802 233.384 75.5698 237.451 77.9206H237.515C239.104 78.8286 240.577 79.9276 241.899 81.1929C243.296 82.6226 243.963 83.8615 243.615 84.5605Z" fill="#EDF5EF"/>
<path d="M243.582 84.6239C243.075 85.4816 238.308 93.7735 238.277 93.7735C237.864 94.5042 236.466 94.5359 234.56 93.9958C232.804 93.4717 231.119 92.7355 229.541 91.8037C229.532 91.8037 229.524 91.8004 229.517 91.7945C229.512 91.7884 229.508 91.7803 229.508 91.772C225.379 89.421 222.647 86.4346 223.377 85.1638L228.715 75.9189C227.983 77.2216 230.715 80.1761 234.846 82.5588C234.854 82.5588 234.863 82.5621 234.868 82.568C234.874 82.5741 234.878 82.5822 234.878 82.5905C236.463 83.5092 238.146 84.2447 239.897 84.7826C241.74 85.291 243.106 85.2593 243.582 84.6239Z" fill="#50A060"/>
<path d="M243.615 84.5284C243.361 84.9732 242.756 85.1638 241.867 85.1321C240.151 85.0368 237.547 84.1155 234.846 82.5588C230.715 80.1762 227.983 77.2215 228.715 75.919C229.445 74.6482 233.384 75.5378 237.515 77.9205C241.644 80.3032 244.376 83.2577 243.615 84.5284Z" fill="#50A060"/>
<path d="M236.784 94.6631C235.005 94.6631 232.177 93.7099 229.349 92.0579C227.524 91.0424 225.856 89.7693 224.394 88.2774C223.123 86.8796 222.678 85.7676 223.091 85.0052C223.112 84.9676 223.141 84.9346 223.174 84.9078C223.207 84.8811 223.246 84.8614 223.287 84.8496C223.329 84.8378 223.371 84.8341 223.414 84.8391C223.458 84.844 223.499 84.8573 223.536 84.8782C223.574 84.899 223.607 84.927 223.633 84.9606C223.661 84.9943 223.679 85.0328 223.692 85.0741C223.703 85.1154 223.707 85.1587 223.703 85.2013C223.698 85.2441 223.685 85.2853 223.663 85.3228C223.377 85.7995 223.823 86.7525 224.839 87.8326C226.264 89.2852 227.891 90.5263 229.668 91.5178C232.844 93.3287 236.054 94.3453 237.482 93.9641C237.702 93.9221 237.895 93.7968 238.022 93.6146C238.068 93.5429 238.14 93.4904 238.221 93.467C238.302 93.4436 238.391 93.4509 238.468 93.4876C238.535 93.5381 238.581 93.6108 238.597 93.6924C238.616 93.7739 238.603 93.8591 238.562 93.9324C238.468 94.1016 238.336 94.2467 238.177 94.3569C238.017 94.467 237.834 94.5392 237.643 94.5678C237.36 94.6342 237.073 94.6663 236.784 94.6631Z" fill="#011230"/>
<path opacity="0.35" d="M239.897 84.7828L234.56 93.9958L214.831 128.18C213.075 127.656 211.39 126.919 209.812 125.988L229.541 91.8037L234.878 82.5907C236.463 83.5094 238.146 84.2449 239.897 84.7828Z" fill="#011230"/>
<path d="M248.92 100.794L248.539 100.953L248.411 101.017L246.76 101.557L247.173 101.366L247.617 101.048C250.382 98.9517 246.632 95.3618 244.028 91.0729C242.883 89.1986 241.961 87.1971 241.867 85.132C242.756 85.1637 243.361 84.9731 243.615 84.5283C243.963 91.6447 254.002 97.8715 248.92 100.794Z" fill="#DADADA"/>
<path d="M247.617 101.049L247.173 101.366L246.76 101.557H246.632C242.057 102.923 241.867 85.1321 241.867 85.1321C241.961 87.197 242.883 89.1985 244.028 91.073C244.503 95.4888 245.49 100.635 247.617 101.049Z" fill="#DADADA"/>
<path d="M242.122 85.4497C240.341 85.4497 237.515 84.4648 234.688 82.8128C232.844 81.81 231.163 80.5356 229.7 79.0323C228.428 77.6662 227.983 76.5224 228.428 75.76C228.479 75.6937 228.551 75.6476 228.634 75.6301C228.715 75.6126 228.8 75.6249 228.874 75.6647C228.909 75.6841 228.938 75.7106 228.962 75.7427C228.986 75.7746 229.003 75.8111 229.012 75.85C229.021 75.8891 229.023 75.9293 229.014 75.9685C229.007 76.0078 228.992 76.045 228.968 76.0776C228.715 76.5543 229.16 77.5073 230.175 78.6192C231.193 79.7311 233.036 81.1291 235.005 82.2727C238.149 84.1153 241.39 85.1319 242.82 84.719C243.034 84.688 243.23 84.5739 243.361 84.4012C243.377 84.3638 243.401 84.3302 243.432 84.3031C243.462 84.2759 243.499 84.2556 243.538 84.2434C243.576 84.2314 243.619 84.2279 243.659 84.2333C243.7 84.2384 243.738 84.2525 243.773 84.2742C243.812 84.2941 243.845 84.3216 243.873 84.3551C243.901 84.3887 243.921 84.4276 243.932 84.4692C243.945 84.5109 243.949 84.5544 243.943 84.5973C243.938 84.6403 243.923 84.6818 243.901 84.719C243.683 85.0377 243.355 85.2641 242.979 85.3544C242.699 85.4208 242.409 85.4528 242.122 85.4497Z" fill="#011230"/>
<path d="M241.867 85.4501C241.783 85.4501 241.702 85.4167 241.643 85.357C241.584 85.2975 241.549 85.2167 241.549 85.1325C241.545 85.0895 241.549 85.046 241.563 85.0051C241.578 84.9642 241.6 84.9271 241.631 84.8965C241.661 84.8659 241.7 84.8427 241.74 84.8285C241.781 84.8143 241.825 84.8097 241.867 84.8147C241.952 84.8147 242.032 84.8482 242.092 84.9078C242.151 84.9673 242.184 85.0482 242.184 85.1325C242.177 85.2143 242.142 85.291 242.083 85.3491C242.026 85.4071 241.949 85.4429 241.867 85.4501Z" fill="#011230"/>
<path d="M246.155 101.97C245.744 101.97 245.342 101.836 245.012 101.589C241.74 99.1743 241.549 85.7041 241.549 85.1321C241.545 85.0921 241.549 85.0514 241.561 85.013C241.574 84.9745 241.595 84.9391 241.62 84.9091C241.648 84.8792 241.681 84.8553 241.718 84.8388C241.755 84.8226 241.796 84.8143 241.834 84.8145C241.877 84.8101 241.919 84.814 241.96 84.8261C242 84.8381 242.037 84.858 242.07 84.8846C242.102 84.9111 242.129 84.9439 242.149 84.981C242.168 85.018 242.181 85.0586 242.185 85.1004C242.249 86.816 242.914 88.6586 244.282 90.9143C244.885 91.8673 245.521 92.8203 246.155 93.7099C248.315 96.8233 250.19 99.4919 247.809 101.303L247.3 101.652L246.887 101.843H246.728C246.546 101.916 246.352 101.959 246.155 101.97ZM242.312 88.4363C242.566 92.6616 243.296 99.5238 245.394 101.08C245.554 101.203 245.742 101.285 245.941 101.318C246.14 101.351 246.345 101.335 246.537 101.271H246.664L247.014 101.112L247.427 100.826C249.237 99.4602 247.903 97.3634 245.648 94.0911C245.012 93.2017 244.345 92.2485 243.742 91.2636C243.2 90.3558 242.721 89.4109 242.312 88.4363Z" fill="#011230"/>
<path d="M236.879 108.197L236.817 98.0941C236.813 97.8336 236.741 97.5783 236.608 97.3549C236.474 97.1315 236.282 96.9479 236.054 96.8233C235.864 96.7247 235.655 96.6679 235.442 96.6568C235.23 96.6456 235.016 96.6804 234.817 96.7586C234.618 96.8369 234.439 96.9569 234.29 97.1107C234.142 97.2642 234.028 97.448 233.956 97.6495L231.478 104.988C231.193 105.818 230.618 106.517 229.858 106.958C227.477 108.324 226.236 113.693 227.794 116.044C229.349 118.395 232.208 118.522 235.737 114.36C236.166 113.85 236.634 113.373 237.134 112.93C237.007 112.2 236.879 108.928 236.879 108.197Z" fill="#F4A49D"/>
<path d="M292.635 153.627L292.443 153.564C289.903 151.499 287.011 149.37 283.58 146.987C283.519 146.932 283.479 146.858 283.468 146.777C283.455 146.695 283.473 146.612 283.516 146.543C283.54 146.507 283.569 146.476 283.602 146.451C283.637 146.427 283.678 146.41 283.718 146.401C283.761 146.392 283.803 146.392 283.844 146.4C283.886 146.408 283.927 146.424 283.962 146.447C287.392 148.862 290.283 151.022 292.856 153.055C292.919 153.11 292.957 153.188 292.963 153.271C292.97 153.354 292.943 153.437 292.889 153.5C292.861 153.542 292.823 153.575 292.778 153.597C292.734 153.62 292.684 153.63 292.635 153.627Z" fill="#011230"/>
<path opacity="0.35" d="M312.172 136.44C311.156 138.473 310.012 140.665 308.773 142.952C306.581 146.955 304.104 151.276 301.339 155.66C300.29 157.312 299.21 158.996 298.098 160.68L304.421 127.544L312.172 136.44Z" fill="#011230"/>
<path d="M315.54 204.109V204.426C315.557 204.321 315.557 204.214 315.54 204.109Z" fill="#EDF5EF"/>
<path d="M346.198 66.2295C346.611 61.7817 348.58 57.747 346.77 57.5881C344.96 57.4292 340.066 61.178 339.653 65.6258C339.24 70.0736 342.418 73.8224 344.228 73.9811C346.04 74.14 345.785 70.6771 346.198 66.2295Z" fill="#DADADA"/>
<path d="M342.926 61.6226C344.799 57.5879 348.359 53.3944 345.022 51.8694C343.339 51.1387 337.811 54.0932 335.936 58.1597C334.062 62.2261 333.839 66.1019 335.492 66.8962C337.144 67.6905 341.019 65.689 342.926 61.6226Z" fill="#DADADA"/>
<path d="M316.397 77.2532C314.937 71.2489 313.761 65.7845 310.552 67.1823C308.869 67.913 308.519 72.8056 309.98 78.8099C311.442 84.8143 314.047 89.2938 315.794 88.8807C317.542 88.4678 317.828 83.2259 316.397 77.2532Z" fill="#DADADA"/>
<path d="M337.017 61.0191C340.099 55.6818 345.149 49.2008 342.926 48.3114C339.59 47.0087 332.6 51.3612 329.518 56.6984C326.438 62.0357 325.612 67.3412 327.676 68.5165C329.741 69.692 333.935 66.3563 337.017 61.0191Z" fill="#DADADA"/>
<path d="M318.017 68.9932C317.796 62.83 320.369 54.6971 316.176 56.2219C313.792 57.0798 311.219 63.0841 311.442 69.2474C311.663 75.4106 313.317 80.3349 315.127 80.2713C316.937 80.2079 318.24 75.1564 318.017 68.9932Z" fill="#DADADA"/>
<path d="M325.833 64.6092C328.089 58.8908 328.788 50.472 325.134 49.5188C321.481 48.5658 319.035 55.2691 316.779 61.0193C314.524 66.7696 314.047 71.9479 315.763 72.6152C317.477 73.2823 323.577 70.3595 325.833 64.6092Z" fill="#DADADA"/>
<path d="M332.218 60.2569C334.475 54.5067 335.3 48.6611 333.618 47.994C331.933 47.3267 325.389 51.7109 323.133 57.4295C320.876 63.1478 320.432 68.358 322.117 69.0251C323.8 69.6924 329.964 65.9753 332.218 60.2569Z" fill="#DADADA"/>
<path d="M329.074 96.4108C339.057 96.4108 347.151 88.3175 347.151 78.334C347.151 68.3505 339.057 60.2573 329.074 60.2573C319.09 60.2573 310.996 68.3505 310.996 78.334C310.996 88.3175 319.09 96.4108 329.074 96.4108Z" fill="#DADADA"/>
<path d="M321.704 80.1122H322.084C321.765 78.8141 321.636 77.4764 321.704 76.1411C321.933 72.8585 323.424 69.7923 325.864 67.5846C328.305 65.3768 331.503 64.1989 334.794 64.2973C338.082 64.396 341.207 65.7633 343.509 68.1132C345.813 70.4631 347.118 73.6132 347.151 76.9035C347.151 77.253 347.151 77.5708 347.118 77.8884C346.976 80.2999 347.424 82.7097 348.421 84.9095C348.842 85.8824 349.057 86.9313 349.057 87.9912V90.1197C349.048 92.5184 348.091 94.8165 346.396 96.5127C344.7 98.209 342.401 99.1655 340.003 99.1739H333.205C330.753 99.1673 328.368 98.382 326.392 96.9317C324.416 95.4814 322.952 93.4408 322.211 91.1046H321.704C320.945 91.1621 320.181 91.0624 319.463 90.8115C318.744 90.5608 318.086 90.1641 317.527 89.6467C316.969 89.1292 316.522 88.502 316.218 87.8044C315.914 87.1067 315.757 86.3537 315.757 85.5924C315.757 84.8313 315.914 84.0783 316.218 83.3806C316.522 82.6831 316.969 82.0558 317.527 81.5384C318.086 81.021 318.744 80.6243 319.463 80.3734C320.181 80.1225 320.945 80.0228 321.704 80.0805V80.1122Z" fill="#F4A49D"/>
<path d="M338.16 95.1711H324.53V110.503H338.16V95.1711Z" fill="#F4A49D"/>
<path d="M336.794 80.5896C336.794 80.5896 334.124 82.6862 331.107 82.4322C328.089 82.178 325.833 79.6364 325.833 79.6364C325.833 79.6364 328.471 77.5396 331.52 77.7938C334.571 78.048 336.794 80.5896 336.794 80.5896Z" fill="white"/>
<path d="M331.647 82.7814H331.076C327.962 82.4955 325.675 79.9856 325.579 79.8903C325.547 79.8577 325.523 79.8169 325.512 79.7721C325.501 79.7273 325.503 79.6803 325.516 79.6363C325.514 79.5944 325.522 79.5528 325.538 79.5144C325.555 79.4761 325.581 79.4416 325.612 79.4138C325.739 79.3185 328.406 77.2217 331.551 77.5076C334.698 77.7935 336.921 80.3034 337.048 80.3987C337.089 80.4778 337.109 80.5644 337.112 80.6529C337.107 80.6967 337.094 80.7391 337.072 80.7773C337.05 80.8156 337.02 80.849 336.985 80.8752C336.889 80.9388 334.506 82.7814 331.647 82.7814ZM326.311 79.668C326.945 80.3034 328.819 81.9237 331.138 82.1143C333.459 82.3049 335.555 81.0658 336.318 80.5576C335.651 79.9222 333.776 78.3019 331.488 78.1113C329.201 77.9207 327.072 79.1596 326.311 79.668Z" fill="#011230"/>
<path d="M332.854 82.4321C334.135 82.4321 335.173 81.3937 335.173 80.113C335.173 78.8321 334.135 77.7937 332.854 77.7937C331.573 77.7937 330.535 78.8321 330.535 80.113C330.535 81.3937 331.573 82.4321 332.854 82.4321Z" fill="#011230"/>
<path d="M340.478 80.5896C340.478 80.5896 343.148 82.7181 346.165 82.4322C349.184 82.1463 351.439 79.6364 351.439 79.6364C351.439 79.6364 348.803 77.5396 345.752 77.7938C342.703 78.048 340.478 80.5896 340.478 80.5896Z" fill="white"/>
<path d="M345.625 82.7806C342.766 82.7806 340.384 80.938 340.289 80.8427C340.25 80.8202 340.217 80.7878 340.195 80.7487C340.172 80.7096 340.161 80.6654 340.161 80.6204C340.163 80.5419 340.185 80.4652 340.226 80.3979C340.32 80.2709 342.607 77.7612 345.721 77.4753C348.834 77.1892 351.535 79.286 351.631 79.3813C351.667 79.406 351.699 79.439 351.719 79.4775C351.741 79.516 351.754 79.5594 351.758 79.6038C351.771 79.6936 351.747 79.7846 351.693 79.858C351.599 79.9533 349.312 82.4947 346.198 82.7489L345.625 82.7806ZM340.956 80.5568C341.719 81.0652 343.815 82.336 346.134 82.1135C348.453 81.8912 350.296 80.3026 350.963 79.6672C350.2 79.159 348.104 77.9199 345.785 78.1105C343.465 78.3013 341.623 79.9214 340.956 80.5568Z" fill="#011230"/>
<path d="M347.533 82.4321C348.812 82.4321 349.852 81.3937 349.852 80.113C349.852 78.8321 348.812 77.7937 347.533 77.7937C346.252 77.7937 345.212 78.8321 345.212 80.113C345.212 81.3937 346.252 82.4321 347.533 82.4321Z" fill="#011230"/>
<path d="M322.084 80.1125C323.33 80.1125 324.34 77.6519 324.34 74.6164C324.34 71.581 323.33 69.1204 322.084 69.1204C320.84 69.1204 319.829 71.581 319.829 74.6164C319.829 77.6519 320.84 80.1125 322.084 80.1125Z" fill="#DADADA"/>
<path d="M341.337 88.1821H341.146C341.103 88.1781 341.063 88.1659 341.026 88.1462C340.989 88.1265 340.956 88.0996 340.93 88.0669C340.904 88.0345 340.884 87.9971 340.871 87.9569C340.86 87.9165 340.856 87.8743 340.86 87.8327C340.88 87.7539 340.924 87.6837 340.987 87.6323C341.05 87.5809 341.129 87.551 341.21 87.5468C341.376 87.5613 341.544 87.5429 341.704 87.4926C341.865 87.4421 342.012 87.3608 342.141 87.2531C342.268 87.1455 342.375 87.0135 342.453 86.8649C342.53 86.7163 342.576 86.5539 342.591 86.3871C342.606 86.2203 342.587 86.0522 342.537 85.8924C342.488 85.7325 342.405 85.5843 342.298 85.456C342.191 85.3276 342.058 85.2218 341.909 85.1443C341.761 85.0671 341.599 85.0197 341.431 85.0052C341.391 85.0009 341.35 84.9886 341.313 84.9688C341.277 84.9489 341.243 84.922 341.216 84.8896C341.19 84.8571 341.17 84.8199 341.159 84.7797C341.146 84.7395 341.142 84.6973 341.146 84.6557C341.149 84.614 341.162 84.5735 341.183 84.5366C341.203 84.4995 341.229 84.4669 341.262 84.4404C341.293 84.4138 341.332 84.3939 341.371 84.3817C341.411 84.3698 341.454 84.3655 341.496 84.3698C342.001 84.3908 342.477 84.6118 342.819 84.9841C343.162 85.3565 343.343 85.8498 343.323 86.3554C343.301 86.8608 343.079 87.3373 342.707 87.68C342.335 88.0225 341.842 88.2032 341.337 88.1821Z" fill="#011230"/>
<path d="M336.477 92.8835C336.172 92.8929 335.868 92.8387 335.586 92.7246C335.258 92.6112 334.956 92.4315 334.698 92.1965C334.441 91.9616 334.235 91.6763 334.093 91.3585C334.071 91.3236 334.058 91.2847 334.053 91.244C334.047 91.2035 334.051 91.1622 334.064 91.1229C334.075 91.0838 334.095 91.0477 334.123 91.0171C334.15 90.9865 334.183 90.962 334.22 90.9454C334.301 90.9115 334.392 90.9089 334.475 90.9384C334.556 90.9679 334.624 91.027 334.665 91.1043C334.775 91.3435 334.934 91.5574 335.131 91.7325C335.328 91.9074 335.559 92.0398 335.809 92.1209C336.054 92.2123 336.316 92.2538 336.578 92.2429C336.84 92.232 337.098 92.1688 337.334 92.0575C337.409 92.025 337.496 92.0234 337.573 92.053C337.649 92.0827 337.712 92.1413 337.747 92.2162C337.769 92.253 337.78 92.294 337.783 92.3362C337.787 92.3784 337.78 92.4208 337.765 92.4604C337.75 92.4999 337.726 92.5354 337.695 92.5648C337.665 92.5939 337.629 92.616 337.588 92.6293C337.245 92.8064 336.862 92.894 336.477 92.8835Z" fill="#011230"/>
<path d="M322.084 85.0685C321.986 85.0604 321.896 85.015 321.829 84.9415C321.608 84.6873 320.782 83.8613 320.051 84.4648C319.981 84.5146 319.894 84.5387 319.807 84.5328C319.721 84.5271 319.638 84.4919 319.575 84.4331C319.529 84.3584 319.51 84.2703 319.522 84.1835C319.533 84.0969 319.575 84.0167 319.638 83.9566C319.881 83.7614 320.178 83.6423 320.487 83.6139C320.799 83.5857 321.11 83.6497 321.385 83.7977C321.171 83.5382 320.898 83.3315 320.591 83.1942C320.224 83.0261 319.818 82.9581 319.418 82.9971C319.016 83.0362 318.631 83.1809 318.303 83.4165C318.272 83.4464 318.235 83.4687 318.194 83.4819C318.152 83.495 318.11 83.4987 318.065 83.4926C318.023 83.4865 317.982 83.4709 317.945 83.4465C317.91 83.4224 317.881 83.3903 317.859 83.3529C317.815 83.2832 317.798 83.2003 317.809 83.119C317.822 83.0377 317.861 82.963 317.923 82.9081C318.334 82.5907 318.827 82.3955 319.343 82.345C319.859 82.2943 320.381 82.3905 320.845 82.6222C321.273 82.7953 321.643 83.0823 321.918 83.4523C322.193 83.822 322.36 84.2604 322.403 84.719C322.403 84.7844 322.386 84.849 322.353 84.9052C322.318 84.9614 322.27 85.0069 322.211 85.0368L322.084 85.0685Z" fill="#011230"/>
<path d="M327.105 74.9343C327.063 74.9381 327.02 74.9313 326.981 74.9147C326.943 74.8981 326.908 74.872 326.882 74.839C326.823 74.7796 326.792 74.6998 326.792 74.6165C326.792 74.5333 326.823 74.4535 326.882 74.3942C328.692 72.6152 331.616 72.8375 333.745 73.6635C333.824 73.6972 333.887 73.7614 333.92 73.8417C333.953 73.9221 333.953 74.0122 333.918 74.0924C333.885 74.1724 333.82 74.2358 333.741 74.2685C333.66 74.3013 333.57 74.3007 333.49 74.2672C331.647 73.5365 328.915 73.2823 327.326 74.839C327.265 74.8961 327.188 74.93 327.105 74.9343Z" fill="#011230"/>
<path d="M348.263 74.9343C348.18 74.93 348.101 74.8961 348.04 74.839C346.451 73.2823 343.719 73.5365 341.844 74.2672C341.807 74.2819 341.767 74.2887 341.728 74.2869C341.688 74.2852 341.647 74.2751 341.612 74.257C341.575 74.239 341.544 74.2137 341.518 74.1826C341.492 74.1514 341.474 74.1153 341.465 74.0764C341.431 74.0004 341.43 73.9149 341.459 73.8377C341.489 73.7606 341.548 73.6981 341.623 73.6635C343.752 72.8375 346.674 72.6152 348.484 74.3942C348.543 74.4535 348.576 74.5333 348.576 74.6165C348.576 74.6998 348.543 74.7796 348.484 74.839C348.456 74.8701 348.423 74.8948 348.384 74.9112C348.346 74.9278 348.305 74.9356 348.263 74.9343Z" fill="#011230"/>
<path d="M355.411 180.313C355.411 181.171 355.411 182.092 355.378 183.014C340.066 172.244 320.497 167.447 301.91 168.432C304.707 164.333 306.677 161.569 306.677 161.569C306.677 161.569 318.209 156.359 351.725 168.146L354.838 169.258C355.244 172.929 355.435 176.62 355.411 180.313Z" fill="#50A060"/>
<path d="M301.91 168.431C296.605 176.247 288.283 188.955 284.565 196.96L338.827 236.45C351.885 219.58 355.03 197.69 355.378 183.014C340.065 172.244 320.497 167.447 301.91 168.431Z" fill="#DADADA"/>
<path d="M277.925 260.627L261.724 264.756C252.129 267.202 243.329 269.3 239.326 269.967L238.754 270.061C235.101 270.601 232.019 271.206 229.637 272C228.747 272.286 227.889 272.476 227.189 272.858C226.12 273.261 225.014 273.558 223.886 273.746C220.194 274.358 216.404 273.669 213.165 271.796C209.926 269.921 207.438 266.979 206.129 263.475C204.818 259.969 204.769 256.116 205.985 252.579C207.202 249.04 209.609 246.033 212.798 244.074C221.915 238.514 231.829 232.542 242.28 226.76C246.347 224.505 250.509 222.28 254.703 220.12L254.83 220.184C260.251 223.042 265.044 226.96 268.918 231.709C272.795 236.457 275.674 241.938 277.385 247.823C278.447 252.008 278.629 256.367 277.925 260.627Z" fill="#F4A49D"/>
<path d="M314.968 198.009C312.299 198.485 309.663 199.025 306.994 199.661C301.72 200.931 296.447 202.488 291.173 204.267C285.073 206.363 279.005 208.746 273.033 211.382L272.588 211.574C269.696 212.844 266.806 214.147 263.978 215.513L261.628 216.625L260.738 217.069C276.941 223.296 285.359 241.818 284.375 258.942L290.189 257.449L294.637 256.304L296.574 255.829C299.973 254.939 303.151 254.05 306.104 253.128C321.671 248.33 331.011 243.469 331.011 243.469L314.968 198.009Z" fill="#DADADA"/>
<path d="M260.738 217.069L254.703 220.088L254.83 220.182C260.251 223.04 265.044 226.96 268.918 231.709C272.795 236.457 275.674 241.938 277.385 247.823C278.445 251.997 278.629 256.345 277.925 260.594L284.375 258.942C285.359 241.818 276.941 223.296 260.738 217.069Z" fill="#50A060"/>
<path d="M205.554 456.197C216.081 456.197 224.616 447.665 224.616 437.137C224.616 426.608 216.081 418.075 205.554 418.075C195.027 418.075 186.494 426.608 186.494 437.137C186.494 447.665 195.027 456.197 205.554 456.197Z" fill="#FFD0BC"/>
<path d="M246.124 320.003C247.807 305.929 237.292 260.594 237.196 260.594L237.292 259.799C237.608 257.672 237.493 255.503 236.957 253.42C236.42 251.335 235.475 249.381 234.172 247.668C232.87 245.956 231.237 244.522 229.373 243.449C227.508 242.376 225.447 241.687 223.312 241.423C221.178 241.158 219.012 241.324 216.942 241.908C214.872 242.492 212.938 243.484 211.257 244.826C209.576 246.168 208.181 247.834 207.152 249.724C206.123 251.613 205.484 253.689 205.268 255.829C205.141 256.765 205.11 257.713 205.174 258.656C205.777 311.203 186.652 434.816 186.652 434.816L224.457 439.487C224.457 439.487 242.026 353.647 246.124 320.003Z" fill="#F4A49D"/>
<path d="M318.939 246.647C332.467 246.647 343.433 235.681 343.433 222.153C343.433 208.627 332.467 197.659 318.939 197.659C305.411 197.659 294.445 208.627 294.445 222.153C294.445 235.681 305.411 246.647 318.939 246.647Z" fill="#DADADA"/>
<path d="M205.554 456.197C216.081 456.197 224.616 447.665 224.616 437.137C224.616 426.608 216.081 418.075 205.554 418.075C195.027 418.075 186.494 426.608 186.494 437.137C186.494 447.665 195.027 456.197 205.554 456.197Z" fill="#F4A49D"/>
<path d="M230.715 504.71H102.082C101.285 504.714 100.496 504.546 99.7701 504.216C99.0443 503.886 98.3992 503.401 97.8794 502.797C97.3594 502.192 96.9772 501.483 96.7593 500.716C96.5416 499.949 96.4932 499.143 96.6176 498.356L98.2062 487.967H234.592L236.181 498.323C236.304 499.114 236.256 499.919 236.039 500.688C235.819 501.457 235.438 502.168 234.92 502.777C234.4 503.383 233.755 503.87 233.031 504.203C232.304 504.537 231.515 504.71 230.715 504.71Z" fill="#DADADA"/>
<path d="M181.187 456.197H195.006L186.492 437.137L179.027 441.521L181.187 456.197Z" fill="#F4A49D"/>
<path d="M227.03 439.01C226.986 438.758 226.861 438.525 226.673 438.348C226.487 438.171 226.247 438.057 225.993 438.026C225.736 437.994 225.478 438.044 225.253 438.17C225.029 438.297 224.85 438.49 224.743 438.724C224.579 439.128 224.387 439.521 224.171 439.9H224.14C224.077 440.033 224.004 440.162 223.917 440.282C223.845 440.437 223.76 440.584 223.663 440.726L223.314 441.235C223.25 441.347 223.176 441.454 223.091 441.552L222.933 441.775L222.138 442.728L221.884 443.014L221.471 443.458L221.185 443.713L220.995 443.871L220.677 444.157L220.328 444.442L219.947 444.761L219.534 445.047L219.121 445.333H219.089L218.676 445.587L217.786 446.096L216.896 446.54L216.547 446.667L216.324 446.761L215.88 446.922L215.436 447.08L215.023 447.207H214.896L214.608 447.27L214.291 447.366H214.101L213.782 447.429L213.561 447.493H213.021L212.735 447.556H212.45L211.687 447.62H194.214C191.5 447.639 188.835 446.925 186.494 445.556L186.175 445.333C185.168 444.73 184.239 444.006 183.412 443.172L183.316 443.045C182.502 442.232 181.788 441.325 181.188 440.345C180.114 438.601 179.411 436.654 179.123 434.627L105.45 477.357C102.287 479.182 99.9111 482.113 98.7782 485.584C98.5278 486.364 98.3367 487.16 98.2064 487.967H234.592L227.03 439.01Z" fill="#50A060"/>
<path d="M183.03 432.56L138.712 458.168C140.194 460.73 142.631 462.599 145.49 463.368C148.348 464.137 151.395 463.74 153.961 462.266L178.932 447.81C181.494 446.328 183.364 443.891 184.133 441.032C184.901 438.175 184.505 435.128 183.03 432.56Z" fill="#EDF5EF"/>
<path d="M148.402 464.076C147.394 464.078 146.391 463.949 145.415 463.696C143.951 463.313 142.578 462.64 141.378 461.718C140.178 460.795 139.174 459.643 138.426 458.326C138.404 458.291 138.39 458.253 138.385 458.212C138.38 458.172 138.383 458.129 138.395 458.09C138.407 458.052 138.428 458.015 138.455 457.985C138.482 457.954 138.516 457.93 138.553 457.913C138.622 457.875 138.702 457.864 138.778 457.882C138.854 457.899 138.921 457.945 138.966 458.009C139.679 459.246 140.63 460.328 141.764 461.196C142.899 462.063 144.194 462.697 145.574 463.06C146.948 463.438 148.384 463.537 149.798 463.351C151.211 463.167 152.573 462.701 153.803 461.98L178.773 447.556C181.26 446.109 183.073 443.736 183.817 440.957C184.56 438.177 184.175 435.217 182.744 432.721C182.724 432.682 182.71 432.641 182.705 432.599C182.701 432.557 182.704 432.512 182.716 432.472C182.728 432.429 182.747 432.393 182.774 432.358C182.801 432.324 182.834 432.297 182.871 432.275C182.909 432.254 182.95 432.241 182.993 432.236C183.036 432.232 183.079 432.236 183.12 432.247C183.162 432.258 183.2 432.278 183.234 432.306C183.267 432.332 183.295 432.365 183.316 432.402C184.825 435.047 185.229 438.181 184.438 441.121C183.647 444.061 181.724 446.568 179.091 448.096L154.12 462.551C152.38 463.55 150.408 464.076 148.402 464.076Z" fill="#011230"/>
<path d="M165.329 439.593L164.063 440.323C163.076 440.892 162.737 442.157 163.307 443.143L169.62 454.077C170.19 455.066 171.453 455.403 172.441 454.833L173.707 454.101C174.694 453.532 175.032 452.269 174.462 451.281L168.15 440.348C167.579 439.36 166.317 439.021 165.329 439.593Z" fill="#DADADA"/>
<path d="M164.096 459.63L162.825 460.36C162.591 460.498 162.333 460.588 162.064 460.625C161.796 460.664 161.522 460.647 161.26 460.579C160.997 460.513 160.751 460.393 160.534 460.231C160.317 460.066 160.135 459.862 159.997 459.63L159.648 458.994L154.057 449.303L153.675 448.7C153.539 448.465 153.451 448.205 153.415 447.935C153.38 447.665 153.398 447.39 153.469 447.128C153.54 446.864 153.662 446.619 153.828 446.404C153.994 446.188 154.201 446.007 154.438 445.873L155.709 445.143C155.94 445.003 156.199 444.911 156.467 444.874C156.735 444.835 157.008 444.853 157.27 444.925C157.531 444.995 157.775 445.119 157.987 445.288C158.2 445.456 158.376 445.666 158.504 445.904L158.886 446.509L164.477 456.197L164.826 456.833C164.963 457.064 165.053 457.32 165.09 457.587C165.128 457.853 165.112 458.124 165.044 458.383C164.976 458.643 164.857 458.887 164.695 459.101C164.532 459.314 164.328 459.495 164.096 459.63Z" fill="#DADADA"/>
<path d="M97.4755 493.051C97.4325 493.055 97.389 493.051 97.3483 493.036C97.3074 493.022 97.2701 492.999 97.2395 492.968C97.2091 492.939 97.1857 492.902 97.1717 492.859C97.1575 492.819 97.1527 492.776 97.1579 492.732C97.1579 492.649 97.1914 492.568 97.2509 492.507C97.3105 492.448 97.3912 492.415 97.4755 492.415H235.322C235.366 492.41 235.408 492.415 235.451 492.428C235.491 492.443 235.528 492.467 235.558 492.496C235.589 492.528 235.613 492.564 235.626 492.605C235.641 492.646 235.646 492.69 235.641 492.732C235.641 492.817 235.607 492.898 235.547 492.957C235.488 493.016 235.407 493.051 235.322 493.051H97.4755Z" fill="#011230"/>
<path d="M98.2058 488.284C98.1629 488.29 98.1194 488.286 98.0784 488.271C98.0377 488.257 98.0005 488.235 97.9699 488.203C97.9394 488.174 97.916 488.135 97.902 488.094C97.8878 488.054 97.883 488.01 97.8882 487.967C97.8882 487.882 97.9218 487.803 97.9813 487.742C98.0408 487.683 98.1216 487.65 98.2058 487.65H234.592C234.634 487.645 234.678 487.65 234.719 487.663C234.76 487.678 234.796 487.702 234.828 487.731C234.857 487.763 234.881 487.8 234.896 487.84C234.909 487.881 234.914 487.925 234.909 487.967C234.909 488.052 234.876 488.133 234.817 488.192C234.756 488.251 234.677 488.284 234.592 488.284H98.2058Z" fill="#011230"/>
<path d="M194.214 448.127C192.167 448.133 190.14 447.733 188.249 446.953C186.357 446.175 184.637 445.03 183.189 443.585C183.153 443.558 183.123 443.523 183.101 443.484C183.079 443.443 183.066 443.399 183.063 443.353C183.06 443.309 183.066 443.263 183.082 443.22C183.098 443.178 183.123 443.139 183.155 443.106C183.187 443.075 183.226 443.049 183.269 443.034C183.311 443.018 183.357 443.01 183.402 443.014C183.448 443.018 183.492 443.03 183.532 443.053C183.572 443.075 183.607 443.104 183.634 443.141C185.021 444.531 186.671 445.633 188.486 446.38C190.302 447.126 192.249 447.506 194.214 447.493H210.796C213.478 447.499 216.112 446.782 218.42 445.418C220.73 444.053 222.629 442.092 223.917 439.742C223.934 439.703 223.958 439.67 223.989 439.642C224.02 439.615 224.055 439.594 224.094 439.583C224.135 439.57 224.175 439.567 224.216 439.572C224.256 439.578 224.295 439.593 224.33 439.615C224.369 439.631 224.402 439.655 224.43 439.685C224.455 439.716 224.476 439.753 224.489 439.792C224.5 439.83 224.503 439.873 224.498 439.913C224.494 439.954 224.479 439.993 224.457 440.028C223.121 442.481 221.145 444.529 218.741 445.956C216.335 447.381 213.593 448.131 210.796 448.127H194.214Z" fill="#011230"/>
<path d="M231.901 269.886C238.529 263.98 239.115 253.818 233.209 247.189C227.303 240.561 217.141 239.974 210.512 245.88C203.884 251.786 203.298 261.949 209.204 268.577C215.11 275.206 225.272 275.792 231.901 269.886Z" fill="#F4A49D"/>
<path d="M277.925 260.911H277.862C277.783 260.896 277.713 260.852 277.667 260.787C277.619 260.723 277.599 260.642 277.608 260.563C278.31 256.345 278.126 252.028 277.068 247.886C275.346 242.052 272.48 236.62 268.633 231.906C264.787 227.193 260.041 223.294 254.669 220.437C254.621 220.428 254.577 220.406 254.539 220.376C254.5 220.345 254.468 220.306 254.448 220.262C254.428 220.218 254.417 220.168 254.419 220.12C254.421 220.07 254.432 220.022 254.456 219.978C254.478 219.936 254.511 219.897 254.551 219.869C254.59 219.84 254.636 219.821 254.686 219.814C254.734 219.805 254.784 219.808 254.83 219.823C254.878 219.838 254.92 219.864 254.955 219.897C260.413 222.778 265.235 226.726 269.138 231.508C273.04 236.288 275.941 241.803 277.671 247.727C278.76 251.952 278.944 256.358 278.211 260.658C278.203 260.729 278.17 260.793 278.117 260.839C278.063 260.887 277.995 260.913 277.925 260.911Z" fill="#011230"/>
<path d="M254.83 220.501L254.638 220.437H254.542C254.507 220.415 254.478 220.385 254.454 220.35C254.43 220.315 254.411 220.277 254.404 220.234C254.386 220.151 254.402 220.065 254.448 219.993C254.494 219.921 254.566 219.871 254.651 219.853C254.734 219.836 254.821 219.851 254.892 219.897H254.924L255.02 219.961C255.08 220.017 255.121 220.09 255.132 220.171C255.143 220.253 255.127 220.335 255.082 220.406C255.012 220.468 254.922 220.501 254.83 220.501Z" fill="#011230"/>
<path d="M284.375 259.259C284.288 259.252 284.207 259.211 284.148 259.147C284.089 259.082 284.056 258.998 284.056 258.911C284.946 243.565 277.989 224.028 260.61 217.388C260.531 217.355 260.467 217.29 260.435 217.209C260.402 217.128 260.402 217.04 260.435 216.959C260.47 216.879 260.533 216.815 260.614 216.783C260.695 216.75 260.786 216.75 260.865 216.783C268.585 219.77 274.97 225.617 279.291 233.781C283.295 241.278 285.201 250.238 284.692 258.942C284.697 258.985 284.692 259.029 284.679 259.069C284.664 259.11 284.64 259.147 284.611 259.178C284.579 259.208 284.542 259.232 284.502 259.246C284.461 259.259 284.417 259.265 284.375 259.259Z" fill="#011230"/>
<path d="M281.864 240.898C281.798 240.887 281.735 240.857 281.683 240.813C281.632 240.767 281.597 240.708 281.578 240.643C281.558 240.562 281.571 240.479 281.613 240.407C281.654 240.336 281.722 240.284 281.801 240.262L290.856 238.452C309.44 234.798 325.516 231.62 331.616 225.171C347.183 208.811 349.85 179.963 349.883 179.678C349.89 179.591 349.931 179.51 349.996 179.451C350.06 179.392 350.145 179.36 350.232 179.36C350.274 179.364 350.314 179.376 350.351 179.396C350.388 179.416 350.421 179.443 350.447 179.475C350.475 179.507 350.495 179.545 350.506 179.585C350.519 179.625 350.523 179.668 350.517 179.709C350.486 179.995 347.817 209.063 332.091 225.617C325.833 232.192 309.663 235.401 290.95 239.086L281.929 240.865L281.864 240.898Z" fill="#011230"/>
<path d="M260.738 217.388C260.681 217.386 260.625 217.371 260.575 217.344C260.526 217.316 260.483 217.277 260.452 217.229C260.421 217.152 260.419 217.067 260.448 216.99C260.478 216.912 260.537 216.85 260.61 216.817L260.992 216.594L261.501 216.339L263.82 215.228C266.87 213.797 269.696 212.496 272.461 211.288L272.906 211.097C279.197 208.334 285.296 205.95 291.077 203.981C296.86 202.011 301.879 200.549 306.93 199.344C309.568 198.708 312.268 198.168 314.904 197.69C314.985 197.681 315.064 197.703 315.129 197.749C315.193 197.797 315.24 197.867 315.254 197.945C315.263 197.987 315.263 198.029 315.256 198.072C315.249 198.114 315.232 198.155 315.208 198.19C315.184 198.225 315.155 198.256 315.118 198.28C315.083 198.302 315.042 198.319 315 198.326C312.395 198.77 309.726 199.344 307.057 199.978C302.038 201.185 296.732 202.71 291.269 204.584C285.803 206.459 279.418 208.936 273.16 211.67L272.716 211.86C269.951 213.067 267.123 214.37 264.105 215.799L261.787 216.911L261.278 217.165L260.865 217.357L260.738 217.388Z" fill="#011230"/>
<path d="M203.871 292.395H203.839C203.795 292.397 203.753 292.388 203.712 292.369C203.674 292.351 203.639 292.323 203.611 292.29C203.583 292.257 203.563 292.216 203.554 292.174C203.543 292.131 203.543 292.087 203.554 292.045C204.507 278.671 204.951 267.519 204.855 258.846C204.702 256.605 205.017 254.354 205.777 252.238L205.873 252.079V252.017C205.935 251.858 205.967 251.731 206.031 251.604C206.094 251.477 206.19 251.285 206.254 251.095L206.317 250.968C207.24 248.879 208.606 247.014 210.321 245.504C211.29 244.642 212.356 243.895 213.497 243.279L223.6 237.18C223.635 237.156 223.674 237.141 223.716 237.132C223.759 237.125 223.801 237.125 223.841 237.134C223.884 237.143 223.923 237.16 223.958 237.184C223.993 237.207 224.022 237.239 224.044 237.276C224.066 237.313 224.081 237.353 224.087 237.397C224.092 237.44 224.088 237.484 224.077 237.525C224.065 237.567 224.044 237.606 224.017 237.639C223.989 237.672 223.956 237.7 223.917 237.72L213.814 243.82C212.724 244.419 211.703 245.132 210.765 245.949C209.121 247.431 207.801 249.237 206.888 251.254L206.826 251.35L206.634 251.858C206.568 251.978 206.514 252.107 206.475 252.238L206.38 252.461C205.642 254.503 205.34 256.679 205.491 258.846C205.587 267.519 205.141 278.703 204.188 292.109C204.175 292.185 204.136 292.255 204.079 292.307C204.02 292.358 203.948 292.389 203.871 292.395Z" fill="#011230"/>
<path d="M239.326 270.284C239.252 270.286 239.178 270.26 239.121 270.214C239.062 270.168 239.023 270.102 239.008 270.03C237.864 264.692 237.007 261.038 236.911 260.721C236.881 260.675 236.87 260.618 236.879 260.563C236.883 260.52 236.896 260.48 236.914 260.443C236.935 260.406 236.962 260.373 236.994 260.347C237.027 260.319 237.064 260.301 237.104 260.288C237.145 260.277 237.187 260.271 237.228 260.277C237.482 260.277 237.482 260.277 238.118 263.104L239.643 269.903C239.652 269.945 239.654 269.988 239.644 270.03C239.637 270.072 239.62 270.111 239.596 270.148C239.574 270.183 239.543 270.214 239.506 270.236C239.471 270.26 239.431 270.277 239.388 270.284H239.326Z" fill="#011230"/>
<path opacity="0.35" d="M261.724 264.756C252.129 267.202 243.329 269.298 239.325 269.965C238.118 264.31 237.23 260.594 237.196 260.594L261.724 264.756Z" fill="#011230"/>
<path d="M354.744 105.91L343.402 106.386C332.854 128.72 309.949 126.21 319.416 107.466L311.728 107.816C304.071 122.43 301.022 135.614 305.311 155.788C310.998 151.88 326.755 151.244 356.045 159.663C356.237 156.836 356.364 153.85 356.396 150.832C356.65 131.484 354.744 105.91 354.744 105.91Z" fill="#50A060"/>
<path d="M356.396 150.831C355.854 150.957 355.299 151.021 354.744 151.022C347.691 151.022 341.94 141.014 341.94 128.656C341.94 117.092 346.991 107.561 353.409 106.386C353.885 109.944 356.65 131.484 356.396 150.831Z" fill="#F4A49D"/>
<path d="M324.244 122.652C321.544 122.652 319.321 121.604 318.049 119.729C316.143 116.87 316.556 112.454 319.162 107.307C319.171 107.259 319.193 107.214 319.223 107.176C319.254 107.137 319.293 107.106 319.337 107.086C319.382 107.065 319.431 107.055 319.481 107.056C319.529 107.057 319.577 107.07 319.621 107.093C319.664 107.116 319.702 107.148 319.73 107.188C319.759 107.228 319.778 107.274 319.785 107.323C319.794 107.371 319.791 107.421 319.776 107.468C319.761 107.515 319.735 107.558 319.702 107.593C317.223 112.549 316.81 116.711 318.589 119.38C319.861 121.254 322.115 122.207 324.976 121.985C330.089 121.604 337.937 117.283 343.116 106.259C343.157 106.182 343.225 106.122 343.308 106.093C343.389 106.064 343.479 106.066 343.561 106.1C343.599 106.12 343.632 106.148 343.66 106.181C343.688 106.215 343.708 106.253 343.719 106.295C343.732 106.337 343.736 106.38 343.73 106.423C343.725 106.466 343.71 106.508 343.688 106.545C338.383 117.791 330.312 122.239 325.039 122.62L324.244 122.652Z" fill="#011230"/>
<path d="M354.744 151.34C347.5 151.34 341.623 141.173 341.623 128.656C341.623 116.997 346.674 107.276 353.378 106.1C353.446 106.108 353.511 106.139 353.561 106.187C353.608 106.235 353.642 106.298 353.653 106.366C353.664 106.434 353.653 106.504 353.62 106.565C353.586 106.626 353.535 106.675 353.472 106.704C347.087 107.847 342.257 117.283 342.257 128.656C342.257 140.824 347.85 150.704 354.744 150.704C354.825 150.711 354.903 150.747 354.96 150.805C355.019 150.863 355.054 150.94 355.061 151.022C355.061 151.106 355.028 151.187 354.969 151.246C354.908 151.306 354.827 151.34 354.744 151.34Z" fill="#011230"/>
<path d="M355.378 183.331L355.188 183.268C340.637 173.038 321.227 167.732 301.944 168.749C301.901 168.753 301.859 168.75 301.818 168.738C301.778 168.725 301.741 168.706 301.708 168.679C301.676 168.652 301.649 168.62 301.63 168.583C301.61 168.546 301.597 168.505 301.593 168.463C301.591 168.381 301.619 168.3 301.673 168.236C301.724 168.172 301.798 168.129 301.879 168.114C321.322 167.097 340.891 172.434 355.57 182.759C355.631 182.814 355.671 182.889 355.682 182.97C355.693 183.051 355.677 183.134 355.632 183.204C355.568 183.278 355.478 183.323 355.378 183.331Z" fill="#011230"/>
<path d="M354.838 169.575H354.744C319.417 156.581 306.932 161.823 306.804 161.887C306.727 161.919 306.642 161.921 306.565 161.891C306.487 161.861 306.425 161.803 306.392 161.728C306.369 161.691 306.357 161.65 306.355 161.608C306.351 161.566 306.357 161.523 306.373 161.484C306.388 161.444 306.412 161.409 306.441 161.38C306.473 161.35 306.51 161.328 306.55 161.315C306.677 161.251 309.757 159.885 317.319 160.171C324.213 160.425 336.381 162.141 354.965 169.003C355.03 169.034 355.081 169.085 355.113 169.149C355.144 169.213 355.153 169.285 355.138 169.355C355.124 169.424 355.087 169.487 355.032 169.532C354.978 169.578 354.91 169.604 354.838 169.607V169.575Z" fill="#011230"/>
<path d="M356.045 159.981H355.951C331.171 152.833 312.299 151.371 305.47 156.073C305.435 156.097 305.394 156.113 305.352 156.121C305.311 156.129 305.269 156.128 305.226 156.119C305.186 156.11 305.145 156.093 305.112 156.069C305.077 156.045 305.048 156.014 305.024 155.978C305.002 155.943 304.985 155.903 304.978 155.861C304.968 155.82 304.97 155.777 304.978 155.735C304.987 155.694 305.003 155.655 305.029 155.62C305.053 155.585 305.085 155.556 305.12 155.533C308.456 153.246 320.115 149.02 356.141 159.345C356.182 159.36 356.219 159.382 356.25 159.41C356.281 159.439 356.305 159.473 356.324 159.512C356.342 159.55 356.351 159.592 356.353 159.634C356.355 159.677 356.348 159.719 356.331 159.758C356.313 159.82 356.276 159.875 356.224 159.914C356.173 159.954 356.11 159.977 356.045 159.981Z" fill="#011230"/>
<path opacity="0.35" d="M356.396 150.831C356.364 153.849 356.237 156.836 356.045 159.663C355.832 162.882 355.428 166.086 354.838 169.257C355.244 172.928 355.433 176.62 355.409 180.313C355.315 180.122 355.251 179.9 355.157 179.678C353.87 176.107 352.777 172.469 351.883 168.781C351.817 168.573 351.763 168.361 351.725 168.145C346.261 145.685 347.214 122.97 347.214 122.97L355.728 122.429C356.141 131.007 356.523 141.65 356.396 150.831Z" fill="#011230"/>
<path d="M355.284 124.654C360.46 124.654 364.656 120.458 364.656 115.282C364.656 110.106 360.46 105.91 355.284 105.91C350.108 105.91 345.911 110.106 345.911 115.282C345.911 120.458 350.108 124.654 355.284 124.654Z" fill="#F4A49D"/>
<path d="M364.37 174.753C369.546 174.753 373.741 170.557 373.741 165.381C373.741 160.205 369.546 156.009 364.37 156.009C359.194 156.009 354.998 160.205 354.998 165.381C354.998 170.557 359.194 174.753 364.37 174.753Z" fill="#DADADA"/>
<path d="M355.632 168.813C352.932 161.982 346.611 118.839 346.611 118.839C346.137 117.703 345.892 116.484 345.89 115.252C345.887 114.02 346.128 112.801 346.596 111.662C347.066 110.523 347.754 109.488 348.624 108.615C349.492 107.743 350.525 107.05 351.662 106.577C352.799 106.103 354.018 105.858 355.249 105.856C356.48 105.853 357.701 106.093 358.84 106.562C361.14 107.51 362.969 109.332 363.926 111.628C363.926 111.628 365.99 113.883 373.011 161.792C373.139 162.586 373.551 163.348 373.647 164.174C373.939 166.441 373.393 168.736 372.112 170.629C370.831 172.521 368.903 173.88 366.689 174.45C364.475 175.02 362.13 174.761 360.093 173.723C358.058 172.685 356.471 170.939 355.632 168.813Z" fill="#F4A49D"/>
<path d="M415.264 230.254C415.279 230.015 415.215 229.777 415.084 229.576C414.951 229.377 414.759 229.224 414.534 229.143L403.699 225.171L402.746 229.11L413.961 231.239C414.112 231.261 414.265 231.254 414.413 231.217C414.56 231.178 414.698 231.112 414.82 231.019C414.942 230.929 415.043 230.813 415.119 230.682C415.196 230.551 415.244 230.406 415.264 230.254Z" fill="#F4A49D"/>
<path d="M422.19 236.419C422.275 236.059 422.232 235.683 422.07 235.353C421.908 235.023 421.635 234.76 421.299 234.607L403.414 226.378L402.302 230.857L420.094 237.53C420.304 237.608 420.527 237.641 420.752 237.626C420.975 237.611 421.192 237.549 421.392 237.443C421.589 237.338 421.762 237.193 421.9 237.016C422.039 236.839 422.136 236.636 422.19 236.419Z" fill="#F4A49D"/>
<path d="M421.427 239.467C421.522 239.101 421.484 238.712 421.321 238.369C421.159 238.026 420.883 237.751 420.538 237.593L402.652 229.46L401.286 235.115L419.362 240.642C419.576 240.71 419.799 240.732 420.022 240.708C420.243 240.684 420.457 240.616 420.652 240.505C420.846 240.395 421.014 240.245 421.148 240.066C421.281 239.888 421.377 239.685 421.427 239.467Z" fill="#F4A49D"/>
<path d="M418.25 241.056C418.243 240.726 418.132 240.407 417.933 240.144C417.732 239.882 417.454 239.689 417.139 239.595L401.572 233.939L400.11 239.976L416.407 242.708C416.641 242.747 416.881 242.732 417.109 242.666C417.338 242.599 417.548 242.481 417.725 242.323C417.9 242.164 418.04 241.969 418.131 241.749C418.223 241.53 418.263 241.294 418.25 241.056Z" fill="#F4A49D"/>
<path d="M396.457 239.086L400.11 239.976L403.699 225.171L392.613 222.249C381.048 197.023 386.353 188.129 373.105 162.046C370.818 157.471 365.863 154.771 361.002 156.613C359.852 157.053 358.801 157.715 357.907 158.562C357.015 159.409 356.296 160.423 355.795 161.547C355.293 162.671 355.019 163.882 354.985 165.113C354.952 166.343 355.161 167.568 355.601 168.717C355.601 168.717 357.538 189.176 379.428 230.953C380.91 233.786 383.058 236.218 385.686 238.037C388.005 239.657 390.801 241.628 392.359 242.485C394.519 243.661 401.38 246.585 401.38 246.585C401.625 246.68 401.891 246.714 402.153 246.68C402.413 246.647 402.661 246.55 402.873 246.393C403.039 246.258 403.174 246.089 403.268 245.895C403.362 245.703 403.415 245.493 403.421 245.279C403.426 245.066 403.386 244.854 403.303 244.656C403.22 244.459 403.095 244.282 402.938 244.138L396.457 239.086Z" fill="#F4A49D"/>
<path d="M396.805 239.499H396.742L392.962 238.577C392.886 238.549 392.824 238.496 392.783 238.428C392.742 238.358 392.728 238.277 392.739 238.197C392.748 238.155 392.763 238.114 392.787 238.079C392.811 238.043 392.84 238.013 392.875 237.989C392.912 237.965 392.951 237.948 392.993 237.941C393.036 237.932 393.08 237.934 393.12 237.943L396.901 238.865C396.98 238.887 397.048 238.938 397.089 239.01C397.131 239.08 397.142 239.165 397.124 239.244C397.109 239.318 397.069 239.383 397.012 239.431C396.953 239.477 396.881 239.501 396.805 239.499Z" fill="#011230"/>
<path d="M417.139 239.912H417.012L401.445 234.225C401.369 234.192 401.308 234.131 401.273 234.054C401.238 233.978 401.231 233.893 401.253 233.812C401.268 233.773 401.29 233.737 401.318 233.705C401.347 233.674 401.382 233.648 401.421 233.63C401.458 233.613 401.5 233.602 401.543 233.602C401.585 233.6 401.627 233.607 401.666 233.622L417.233 239.309C417.273 239.324 417.31 239.346 417.342 239.373C417.373 239.403 417.399 239.436 417.415 239.475C417.434 239.514 417.443 239.556 417.445 239.598C417.447 239.641 417.439 239.683 417.425 239.722C417.404 239.781 417.364 239.831 417.312 239.866C417.262 239.899 417.2 239.915 417.139 239.912Z" fill="#011230"/>
<path d="M420.538 237.912H420.379L402.525 229.777C402.479 229.766 402.436 229.746 402.401 229.716C402.365 229.687 402.335 229.65 402.315 229.609C402.295 229.567 402.284 229.521 402.284 229.475C402.284 229.429 402.293 229.383 402.311 229.34C402.33 229.298 402.357 229.261 402.392 229.23C402.427 229.2 402.468 229.178 402.514 229.165C402.558 229.152 402.604 229.148 402.65 229.156C402.696 229.163 402.741 229.18 402.779 229.206L420.665 237.338C420.739 237.373 420.798 237.436 420.827 237.514C420.857 237.591 420.855 237.676 420.824 237.751C420.792 237.799 420.75 237.84 420.7 237.867C420.65 237.895 420.595 237.91 420.538 237.912Z" fill="#011230"/>
<path d="M413.961 231.556H413.834L403.255 226.697C403.179 226.662 403.122 226.599 403.093 226.522C403.063 226.444 403.063 226.359 403.096 226.284C403.137 226.206 403.205 226.146 403.288 226.116C403.371 226.089 403.461 226.09 403.541 226.124L414.12 230.984C414.195 231.019 414.254 231.082 414.284 231.16C414.313 231.237 414.311 231.322 414.28 231.397C414.241 231.447 414.193 231.486 414.138 231.513C414.083 231.541 414.024 231.556 413.961 231.556Z" fill="#011230"/>
<path d="M351.631 150.609C351.555 150.61 351.483 150.586 351.424 150.539C351.367 150.493 351.326 150.427 351.312 150.355C349.564 140.315 347.817 128.91 346.928 123.001C346.919 122.961 346.917 122.92 346.926 122.88C346.934 122.839 346.95 122.802 346.974 122.768C347 122.735 347.03 122.708 347.066 122.687C347.101 122.667 347.142 122.655 347.183 122.652C347.221 122.642 347.264 122.642 347.304 122.65C347.343 122.658 347.382 122.675 347.415 122.699C347.448 122.723 347.476 122.754 347.496 122.79C347.516 122.825 347.527 122.865 347.531 122.906C348.421 128.815 350.2 140.22 351.948 150.227C351.957 150.269 351.957 150.312 351.949 150.355C351.942 150.397 351.926 150.437 351.902 150.472C351.878 150.508 351.846 150.538 351.811 150.562C351.776 150.585 351.736 150.601 351.693 150.609H351.631Z" fill="#011230"/>
<path d="M355.157 167.732C355.092 167.729 355.03 167.706 354.978 167.666C354.928 167.626 354.89 167.572 354.871 167.51C354.331 165.699 353.664 162.808 352.901 158.932C352.884 158.848 352.901 158.76 352.949 158.689C352.996 158.617 353.07 158.568 353.155 158.551C353.24 158.534 353.326 158.551 353.398 158.599C353.47 158.647 353.52 158.721 353.537 158.805C354.298 162.681 354.934 165.54 355.474 167.319C355.494 167.403 355.483 167.492 355.443 167.569C355.402 167.645 355.334 167.703 355.251 167.732H355.157Z" fill="#011230"/>
<path d="M304.356 151.053C304.281 151.047 304.207 151.016 304.15 150.965C304.093 150.913 304.054 150.843 304.039 150.767C301.085 132.341 304.865 120.205 311.474 107.656C311.485 107.608 311.505 107.563 311.536 107.525C311.566 107.486 311.604 107.455 311.65 107.435C311.695 107.414 311.743 107.404 311.792 107.405C311.842 107.406 311.89 107.419 311.933 107.442C311.977 107.465 312.014 107.497 312.043 107.537C312.071 107.577 312.089 107.623 312.098 107.672C312.106 107.72 312.102 107.77 312.087 107.817C312.073 107.864 312.047 107.907 312.014 107.942C305.501 120.396 301.752 132.405 304.675 150.672C304.685 150.714 304.685 150.759 304.675 150.801C304.664 150.843 304.646 150.883 304.618 150.917C304.591 150.95 304.556 150.977 304.515 150.995C304.476 151.014 304.432 151.023 304.39 151.021L304.356 151.053Z" fill="#011230"/>
<path d="M338.193 99.4919H333.205C330.685 99.4965 328.231 98.694 326.2 97.2016C324.17 95.7094 322.674 93.606 321.925 91.2001C321.911 91.1627 321.905 91.1227 321.907 91.0825C321.909 91.0423 321.918 91.0028 321.936 90.9669C321.955 90.9309 321.979 90.8991 322.01 90.8736C322.041 90.8482 322.078 90.8294 322.117 90.8189C322.156 90.8038 322.198 90.7966 322.24 90.798C322.283 90.7995 322.325 90.8093 322.364 90.8272C322.401 90.8449 322.436 90.8701 322.465 90.9014C322.493 90.9328 322.515 90.9695 322.53 91.0095C323.236 93.2869 324.653 95.2777 326.576 96.6901C328.497 98.1024 330.819 98.8617 333.205 98.8565H338.193C338.274 98.8637 338.351 98.8995 338.408 98.9576C338.467 99.0156 338.502 99.0923 338.51 99.1741C338.51 99.2584 338.477 99.3393 338.416 99.3988C338.357 99.4584 338.276 99.4919 338.193 99.4919Z" fill="#011230"/>
<path d="M29.9973 505.027C29.9543 505.033 29.9108 505.027 29.8699 505.014C29.8292 505 29.792 504.976 29.7614 504.946C29.7308 504.915 29.7075 504.878 29.6933 504.837C29.6793 504.797 29.6745 504.753 29.6797 504.71C29.6797 504.625 29.7131 504.544 29.7728 504.485C29.8323 504.426 29.9131 504.391 29.9973 504.391H230.715C230.76 504.388 230.802 504.391 230.842 504.406C230.885 504.421 230.922 504.443 230.951 504.474C230.983 504.504 231.007 504.541 231.019 504.583C231.034 504.623 231.04 504.666 231.034 504.71C231.034 504.793 231.001 504.874 230.94 504.935C230.881 504.994 230.8 505.027 230.715 505.027H29.9973Z" fill="#011230"/>
<path d="M284.024 503.186C283.943 503.178 283.866 503.141 283.809 503.084C283.75 503.025 283.715 502.95 283.707 502.867C283.707 502.782 283.741 502.703 283.8 502.642C283.86 502.583 283.94 502.55 284.024 502.55H488.461C488.542 502.557 488.62 502.592 488.677 502.651C488.736 502.708 488.771 502.786 488.778 502.867C488.778 502.952 488.745 503.033 488.684 503.092C488.625 503.151 488.544 503.186 488.461 503.186H284.024Z" fill="#011230"/>
<path d="M456.691 478.817C456.649 478.819 456.608 478.811 456.57 478.795C456.531 478.778 456.496 478.752 456.468 478.723C456.406 478.668 456.367 478.59 456.361 478.505C456.356 478.422 456.384 478.341 456.437 478.277C463.574 470.691 470.048 462.507 475.785 453.814C475.803 453.799 475.814 453.775 475.816 453.751L476.865 452.162C495.092 423.911 505.324 391.249 506.474 357.649C506.474 357.609 506.482 357.568 506.498 357.531C506.515 357.494 506.539 357.461 506.568 357.435C506.598 357.408 506.633 357.387 506.672 357.374C506.71 357.363 506.751 357.358 506.791 357.363C506.834 357.358 506.878 357.363 506.919 357.376C506.959 357.391 506.996 357.415 507.027 357.444C507.059 357.476 507.081 357.513 507.095 357.553C507.11 357.594 507.114 357.638 507.108 357.68C505.96 391.395 495.696 424.168 477.405 452.513L476.325 454.164C476.325 454.196 476.293 454.195 476.26 454.229C470.516 462.926 464.044 471.119 456.913 478.723C456.854 478.78 456.774 478.813 456.691 478.817Z" fill="#011230"/>
<path d="M493.847 463.027C494.754 461.643 494.367 459.783 492.981 458.876C491.595 457.969 489.737 458.358 488.83 459.742C487.923 461.128 488.31 462.986 489.696 463.893C491.082 464.8 492.94 464.413 493.847 463.027Z" fill="#DADADA"/>
<path d="M506.76 468.017C505.47 468.013 504.213 467.604 503.169 466.844C502.124 466.085 501.346 465.018 500.946 463.79C500.441 462.249 500.566 460.57 501.291 459.119C502.017 457.666 503.285 456.56 504.821 456.039C506.373 455.532 508.063 455.657 509.523 456.389C510.244 456.748 510.884 457.248 511.407 457.86C511.932 458.47 512.329 459.18 512.574 459.947C513.086 461.488 512.966 463.171 512.24 464.625C511.512 466.078 510.238 467.184 508.697 467.698C508.074 467.912 507.418 468.019 506.76 468.017ZM506.76 456.356C506.176 456.358 505.597 456.455 505.044 456.642C504.354 456.865 503.717 457.222 503.166 457.694C502.616 458.166 502.166 458.743 501.84 459.39C501.516 460.037 501.322 460.743 501.272 461.466C501.223 462.188 501.317 462.914 501.549 463.6C501.752 464.315 502.096 464.981 502.563 465.56C503.029 466.138 503.608 466.616 504.264 466.962C504.92 467.311 505.641 467.523 506.382 467.584C507.121 467.646 507.868 467.558 508.572 467.324C509.278 467.09 509.927 466.714 510.484 466.221C511.04 465.729 511.49 465.128 511.807 464.457C512.126 463.784 512.303 463.056 512.331 462.314C512.358 461.571 512.237 460.831 511.969 460.137C511.75 459.453 511.394 458.819 510.924 458.273C510.456 457.727 509.883 457.281 509.237 456.96C508.469 456.573 507.621 456.367 506.76 456.356ZM506.76 466.173C505.857 466.172 504.978 465.884 504.248 465.355C503.518 464.824 502.974 464.076 502.694 463.219C502.509 462.686 502.434 462.122 502.471 461.56C502.509 460.997 502.66 460.45 502.915 459.947C503.442 458.931 504.342 458.157 505.425 457.786C506.507 457.438 507.684 457.528 508.697 458.041C509.199 458.291 509.645 458.64 510.012 459.066C510.377 459.491 510.653 459.985 510.826 460.518C511.005 461.055 511.075 461.62 511.035 462.184C510.994 462.749 510.843 463.298 510.589 463.803C510.336 464.308 509.984 464.758 509.556 465.126C509.129 465.495 508.631 465.775 508.095 465.95C507.661 466.087 507.213 466.161 506.76 466.173ZM506.76 458.199C506.371 458.201 505.984 458.266 505.615 458.389C504.69 458.699 503.925 459.36 503.488 460.232C503.269 460.662 503.138 461.13 503.105 461.611C503.073 462.09 503.138 462.573 503.296 463.029C503.44 463.482 503.674 463.902 503.986 464.264C504.297 464.625 504.679 464.918 505.108 465.125C505.975 465.561 506.978 465.641 507.903 465.348C508.823 465.036 509.582 464.374 510.017 463.504C510.45 462.636 510.524 461.631 510.222 460.71C510.074 460.256 509.838 459.838 509.527 459.478C509.217 459.119 508.837 458.824 508.412 458.612C507.899 458.352 507.335 458.212 506.76 458.199Z" fill="#50A060"/>
<path d="M501.136 449.049C501.116 449.23 501.136 449.412 501.197 449.583C501.256 449.755 501.353 449.91 501.483 450.039C501.61 450.166 501.766 450.264 501.936 450.324C502.107 450.383 502.29 450.404 502.471 450.383C502.753 450.363 503.02 450.243 503.223 450.046C503.425 449.849 503.553 449.585 503.582 449.303V448.828C503.855 446.183 503.628 443.51 502.915 440.949L502.788 440.472C502.708 440.195 502.535 439.956 502.297 439.794C502.059 439.631 501.772 439.556 501.486 439.583C501.306 439.6 501.132 439.655 500.976 439.746C500.821 439.838 500.686 439.961 500.583 440.111C500.482 440.258 500.412 440.428 500.38 440.605C500.351 440.783 500.358 440.966 500.406 441.139C501.14 443.707 501.387 446.391 501.136 449.049Z" fill="#FFD0BC"/>
<path d="M519.182 440.599C518.318 440.616 517.475 440.343 516.784 439.825C516.093 439.307 515.595 438.573 515.37 437.74C515.245 437.244 515.226 436.728 515.313 436.225C515.402 435.722 515.593 435.242 515.877 434.817C516.465 433.939 517.361 433.316 518.388 433.069C518.893 432.936 519.42 432.905 519.938 432.975C520.456 433.047 520.954 433.218 521.405 433.482C521.853 433.723 522.244 434.057 522.555 434.459C522.867 434.861 523.092 435.322 523.214 435.816C523.337 436.31 523.355 436.822 523.269 437.323C523.18 437.825 522.99 438.302 522.708 438.724C522.12 439.602 521.225 440.227 520.198 440.472C519.866 440.56 519.525 440.605 519.182 440.599ZM519.403 433.578L518.546 433.674C517.674 433.884 516.913 434.418 516.417 435.167C516.183 435.517 516.025 435.913 515.947 436.328C515.872 436.743 515.879 437.169 515.973 437.582C516.386 439.264 518.229 440.313 520.039 439.869C520.911 439.657 521.673 439.124 522.168 438.374C522.402 438.024 522.561 437.629 522.638 437.213C522.714 436.798 522.707 436.372 522.613 435.961C522.506 435.554 522.32 435.174 522.061 434.84C521.805 434.507 521.485 434.23 521.12 434.022C520.594 433.734 520.004 433.581 519.403 433.578ZM519.245 438.947C518.843 438.94 518.45 438.829 518.102 438.629C517.848 438.49 517.626 438.3 517.451 438.07C517.276 437.84 517.151 437.576 517.084 437.296C517.024 437.014 517.02 436.722 517.072 436.439C517.123 436.157 517.23 435.886 517.387 435.644C517.543 435.401 517.746 435.193 517.982 435.028C518.22 434.866 518.487 434.75 518.769 434.689C519.348 434.536 519.964 434.616 520.484 434.912C520.734 435.047 520.954 435.233 521.129 435.458C521.304 435.681 521.429 435.939 521.501 436.216C521.566 436.499 521.575 436.793 521.525 437.08C521.475 437.366 521.368 437.64 521.212 437.886C521.055 438.133 520.85 438.343 520.611 438.509C520.373 438.675 520.102 438.791 519.816 438.852L519.245 438.947ZM519.341 435.229L518.928 435.294C518.519 435.384 518.161 435.631 517.931 435.981C517.698 436.33 517.612 436.756 517.689 437.169C517.741 437.362 517.833 437.545 517.96 437.703C518.085 437.862 518.242 437.993 518.419 438.088C518.801 438.288 519.239 438.343 519.658 438.249C519.862 438.206 520.056 438.125 520.229 438.007C520.402 437.891 520.55 437.742 520.666 437.567C520.78 437.393 520.861 437.198 520.9 436.993C520.941 436.789 520.939 436.579 520.896 436.374C520.845 436.179 520.753 435.996 520.626 435.838C520.5 435.679 520.343 435.548 520.166 435.452C519.912 435.316 519.63 435.239 519.341 435.229Z" fill="#FFD0BC"/>
<path d="M486.109 496.29C485.438 496.299 484.789 496.048 484.299 495.591C484.004 495.324 483.772 494.994 483.619 494.625C483.466 494.258 483.394 493.862 483.409 493.464C483.693 488.347 482.992 483.224 481.344 478.373C481.219 478 481.176 477.606 481.221 477.217C481.263 476.826 481.394 476.452 481.598 476.116C481.812 475.779 482.096 475.491 482.43 475.272C482.763 475.053 483.141 474.907 483.536 474.846C484.157 474.767 484.786 474.905 485.318 475.233C485.851 475.563 486.253 476.067 486.459 476.656L486.745 477.515C488.417 482.439 489.138 487.635 488.874 492.828L488.81 493.75C488.773 494.375 488.524 494.968 488.102 495.431C487.68 495.893 487.11 496.198 486.491 496.29H486.109ZM484.045 493.495C484.028 493.798 484.08 494.1 484.196 494.38C484.31 494.66 484.487 494.911 484.712 495.116C484.94 495.315 485.208 495.468 485.497 495.56C485.788 495.652 486.093 495.685 486.397 495.656C486.874 495.595 487.315 495.368 487.641 495.012C487.967 494.658 488.155 494.199 488.176 493.716L488.238 492.797C488.498 487.689 487.787 482.579 486.142 477.737L485.857 476.879C485.705 476.424 485.401 476.037 484.994 475.781C484.588 475.526 484.107 475.42 483.632 475.482C483.331 475.532 483.044 475.641 482.787 475.805C482.531 475.969 482.31 476.183 482.139 476.435C481.984 476.695 481.888 476.986 481.855 477.287C481.822 477.589 481.853 477.893 481.949 478.183C483.61 483.108 484.321 488.304 484.045 493.495Z" fill="#DADADA"/>
<path d="M220.264 472.432C220.195 472.61 220.168 472.804 220.181 472.994C220.195 473.186 220.251 473.37 220.345 473.538C220.439 473.704 220.57 473.849 220.724 473.96C220.881 474.07 221.06 474.146 221.248 474.179C221.543 474.236 221.847 474.188 222.109 474.043C222.369 473.897 222.571 473.665 222.678 473.385L222.868 472.94C223.891 470.328 224.418 467.549 224.426 464.745V464.236C224.422 463.932 224.313 463.637 224.116 463.405C223.919 463.173 223.646 463.018 223.346 462.964C223.159 462.933 222.968 462.942 222.785 462.99C222.603 463.04 222.433 463.127 222.289 463.248C222.144 463.368 222.028 463.519 221.947 463.691C221.865 463.86 221.823 464.046 221.821 464.236C221.832 467.044 221.303 469.825 220.264 472.432Z" fill="#DADADA"/>
<path d="M471.02 489.143C471.211 489.16 471.405 489.132 471.584 489.064C471.764 488.994 471.926 488.885 472.057 488.745C472.19 488.603 472.288 488.435 472.343 488.251C472.4 488.067 472.415 487.871 472.385 487.682C472.349 487.383 472.207 487.108 471.985 486.904C471.764 486.701 471.479 486.581 471.178 486.57H470.701C467.895 486.375 465.079 486.73 462.409 487.617L461.934 487.744C461.652 487.844 461.412 488.037 461.257 488.292C461.101 488.546 461.036 488.847 461.075 489.143C461.093 489.335 461.156 489.519 461.255 489.683C461.355 489.849 461.491 489.988 461.654 490.093C461.816 490.196 462 490.262 462.192 490.284C462.384 490.308 462.577 490.286 462.76 490.223C465.423 489.357 468.223 488.99 471.02 489.143Z" fill="#50A060"/>
<path d="M254.734 189.685C254.395 189.685 254.059 189.611 253.753 189.469C253.445 189.327 253.173 189.119 252.955 188.859C250.201 185.543 246.85 182.774 243.075 180.694C242.778 180.53 242.522 180.303 242.325 180.028C242.126 179.754 241.993 179.438 241.93 179.105C241.845 178.672 241.886 178.223 242.046 177.811C242.207 177.399 242.483 177.042 242.841 176.782C243.197 176.521 243.62 176.369 244.063 176.341C244.503 176.314 244.944 176.413 245.329 176.627L245.997 177.009C249.84 179.111 253.246 181.925 256.037 185.301L256.513 185.873C256.786 186.214 256.955 186.625 257.007 187.06C257.058 187.493 256.986 187.933 256.802 188.328C256.618 188.724 256.327 189.061 255.962 189.301C255.595 189.541 255.171 189.673 254.734 189.685ZM244.218 176.977C243.971 176.975 243.724 177.029 243.499 177.133C243.274 177.237 243.075 177.39 242.916 177.58C242.747 177.767 242.623 177.99 242.557 178.233C242.491 178.477 242.483 178.732 242.535 178.978C242.583 179.225 242.684 179.458 242.833 179.662C242.981 179.865 243.173 180.033 243.392 180.154C247.233 182.256 250.642 185.071 253.431 188.446C253.591 188.636 253.79 188.789 254.015 188.894C254.24 188.997 254.485 189.05 254.734 189.049C254.983 189.05 255.228 188.997 255.453 188.894C255.678 188.789 255.877 188.636 256.037 188.446C256.284 188.14 256.419 187.758 256.419 187.366C256.419 186.973 256.284 186.591 256.037 186.285L255.528 185.681C252.784 182.378 249.442 179.619 245.679 177.549L245.012 177.199C244.774 177.052 244.498 176.975 244.218 176.977Z" fill="#50A060"/>
<path d="M221.027 484.537C220.798 484.54 220.57 484.498 220.359 484.41L219.913 484.187C217.386 483.003 215.11 481.34 213.211 479.294L212.861 478.944C212.656 478.725 212.518 478.452 212.463 478.159C212.405 477.864 212.435 477.56 212.544 477.28C212.654 477.001 212.84 476.758 213.082 476.581C213.323 476.402 213.611 476.297 213.91 476.277C214.144 476.264 214.376 476.299 214.595 476.38C214.815 476.463 215.014 476.59 215.18 476.752C217.041 478.741 219.263 480.358 221.725 481.517C221.935 481.619 222.124 481.764 222.271 481.947C222.42 482.128 222.525 482.339 222.582 482.566C222.643 482.793 222.653 483.031 222.608 483.263C222.564 483.493 222.468 483.713 222.328 483.901C222.175 484.1 221.978 484.262 221.753 484.373C221.526 484.483 221.277 484.539 221.027 484.537ZM214.037 476.911H213.974C213.83 476.918 213.692 476.957 213.567 477.021C213.44 477.088 213.329 477.18 213.242 477.292C213.117 477.473 213.056 477.692 213.075 477.914C213.091 478.133 213.185 478.341 213.338 478.5L213.655 478.85C215.517 480.837 217.736 482.454 220.201 483.615L220.645 483.836C220.848 483.93 221.075 483.949 221.29 483.89C221.504 483.833 221.692 483.702 221.819 483.519C221.902 483.407 221.958 483.276 221.985 483.14C222.013 483.003 222.011 482.861 221.98 482.725C221.941 482.587 221.873 482.457 221.779 482.347C221.687 482.238 221.571 482.15 221.44 482.091C218.911 480.905 216.634 479.245 214.735 477.197C214.643 477.106 214.534 477.034 214.415 476.985C214.295 476.935 214.166 476.911 214.037 476.911Z" fill="#DADADA"/>
<path d="M227.475 192.195H226.776C225.657 192.062 224.601 191.602 223.744 190.868C222.888 190.134 222.269 189.163 221.965 188.075C221.663 186.99 221.688 185.837 222.042 184.766C222.396 183.695 223.06 182.753 223.948 182.061C224.538 181.597 225.213 181.255 225.935 181.054C226.658 180.853 227.412 180.796 228.157 180.888C228.901 180.979 229.62 181.217 230.271 181.587C230.924 181.958 231.495 182.453 231.956 183.045C232.87 184.241 233.29 185.742 233.13 187.238C232.946 188.61 232.271 189.865 231.231 190.778C230.192 191.688 228.857 192.191 227.475 192.195ZM224.361 182.537C223.305 183.359 222.618 184.567 222.452 185.895C222.284 187.224 222.653 188.564 223.473 189.622C223.876 190.149 224.383 190.59 224.962 190.918C225.541 191.244 226.179 191.452 226.841 191.528C227.834 191.653 228.842 191.482 229.738 191.032C230.634 190.584 231.377 189.878 231.871 189.006C232.365 188.134 232.588 187.135 232.513 186.136C232.437 185.137 232.066 184.183 231.447 183.395C231.038 182.871 230.531 182.434 229.952 182.107C229.375 181.78 228.737 181.57 228.079 181.489C227.421 181.402 226.752 181.45 226.112 181.631C225.473 181.811 224.877 182.119 224.361 182.537Z" fill="#EDF5EF"/>
<path d="M322.657 145.398L321.64 145.335C320.567 145.206 319.531 144.865 318.593 144.33C317.654 143.795 316.832 143.078 316.176 142.222C314.843 140.509 314.239 138.34 314.491 136.185C314.688 134.573 315.357 133.054 316.419 131.824C317.479 130.593 318.88 129.705 320.447 129.272C322.014 128.84 323.673 128.883 325.214 129.395C326.755 129.908 328.11 130.867 329.105 132.15C329.77 132.998 330.261 133.969 330.55 135.007C330.838 136.045 330.917 137.129 330.784 138.198C330.652 139.267 330.309 140.3 329.776 141.235C329.241 142.171 328.528 142.992 327.676 143.651C326.25 144.786 324.48 145.402 322.657 145.398ZM322.624 129.609C320.644 129.601 318.738 130.365 317.31 131.738C315.883 133.111 315.044 134.986 314.976 136.965C314.906 138.945 315.608 140.874 316.935 142.344C318.264 143.814 320.111 144.71 322.087 144.841C324.064 144.973 326.014 144.33 327.525 143.05C329.037 141.769 329.99 139.95 330.183 137.979C330.377 136.008 329.796 134.038 328.563 132.488C327.33 130.938 325.542 129.928 323.577 129.672L322.624 129.609Z" fill="#EDF5EF"/>
<path d="M175.755 202.138C176.808 202.138 177.661 201.285 177.661 200.232C177.661 199.18 176.808 198.326 175.755 198.326C174.702 198.326 173.849 199.18 173.849 200.232C173.849 201.285 174.702 202.138 175.755 202.138Z" fill="#50A060"/>
<path d="M211.559 187.397C211.32 187.388 211.089 187.31 210.892 187.176L210.606 186.984C209.052 185.86 207.716 184.461 206.667 182.854L206.475 182.569C206.334 182.335 206.275 182.06 206.31 181.789C206.345 181.517 206.47 181.266 206.667 181.075C206.787 180.949 206.938 180.854 207.104 180.799C207.27 180.744 207.447 180.729 207.62 180.758C207.792 180.774 207.957 180.828 208.105 180.916C208.252 181.004 208.38 181.124 208.477 181.266C209.482 182.811 210.765 184.157 212.258 185.237C212.404 185.334 212.527 185.463 212.616 185.614C212.704 185.766 212.756 185.937 212.769 186.11C212.78 186.285 212.752 186.462 212.686 186.625C212.619 186.787 212.516 186.932 212.385 187.049C212.278 187.159 212.149 187.248 212.007 187.307C211.865 187.367 211.712 187.397 211.559 187.397ZM207.493 181.361C207.349 181.362 207.213 181.419 207.111 181.52C207.019 181.609 206.96 181.727 206.944 181.853C206.925 181.98 206.951 182.109 207.016 182.219L207.207 182.505C208.195 184.054 209.48 185.393 210.988 186.444L211.24 186.636C211.342 186.713 211.469 186.754 211.596 186.748C211.725 186.743 211.847 186.691 211.941 186.602C212.061 186.486 212.129 186.326 212.131 186.158C212.122 186.075 212.094 185.994 212.05 185.924C212.005 185.852 211.946 185.791 211.876 185.745C210.315 184.628 208.979 183.228 207.937 181.615C207.897 181.548 207.841 181.49 207.775 181.446C207.709 181.402 207.635 181.373 207.556 181.361H207.493Z" fill="#DADADA"/>
<path d="M226.109 454.229C226.35 454.068 226.553 453.856 226.704 453.608C226.854 453.361 226.948 453.082 226.979 452.795C227.008 452.505 226.975 452.214 226.879 451.941C226.783 451.666 226.63 451.418 226.428 451.211C226.114 450.879 225.694 450.667 225.241 450.616C224.787 450.564 224.33 450.673 223.948 450.924L223.314 451.337C219.753 453.687 216.651 456.669 214.164 460.137L213.751 460.773C213.486 461.149 213.358 461.604 213.394 462.063C213.429 462.52 213.622 462.953 213.941 463.283C214.144 463.488 214.391 463.648 214.662 463.748C214.933 463.847 215.222 463.888 215.51 463.864C215.799 463.84 216.077 463.751 216.328 463.608C216.579 463.464 216.794 463.265 216.96 463.029C219.438 459.554 222.54 456.57 226.109 454.229Z" fill="#EDF5EF"/>
<path d="M518.122 418.822C518.135 417.594 517.151 416.588 515.923 416.575C514.694 416.562 513.689 417.546 513.676 418.776C513.663 420.003 514.648 421.01 515.875 421.023C517.105 421.036 518.109 420.05 518.122 418.822Z" fill="#50A060"/>
<path d="M187.605 197.087C187.377 197.091 187.15 197.049 186.938 196.96C186.669 196.87 186.424 196.719 186.221 196.521C186.018 196.322 185.861 196.083 185.762 195.815C185.609 195.39 185.605 194.921 185.756 194.494C185.908 194.066 186.201 193.701 186.588 193.465L187.128 193.148C190.191 191.343 193.563 190.125 197.073 189.557L197.675 189.43C198.123 189.367 198.579 189.458 198.966 189.69C199.353 189.92 199.65 190.278 199.804 190.702C199.909 190.969 199.952 191.257 199.93 191.543C199.908 191.828 199.821 192.105 199.677 192.354C199.526 192.593 199.325 192.798 199.091 192.956C198.855 193.115 198.59 193.224 198.311 193.275C194.879 193.83 191.581 195.026 188.59 196.802C188.295 196.986 187.954 197.085 187.605 197.087ZM197.994 190.066H197.771L197.168 190.162C193.732 190.724 190.433 191.932 187.447 193.72L186.938 194.005C186.674 194.164 186.473 194.409 186.368 194.698C186.265 194.988 186.263 195.303 186.367 195.594C186.427 195.78 186.531 195.948 186.669 196.086C186.807 196.225 186.975 196.328 187.161 196.389C187.343 196.453 187.539 196.475 187.731 196.453C187.924 196.431 188.108 196.367 188.273 196.261C191.329 194.461 194.687 193.233 198.184 192.639C198.374 192.612 198.556 192.543 198.717 192.438C198.877 192.333 199.014 192.193 199.113 192.029C199.213 191.865 199.275 191.681 199.298 191.489C199.318 191.299 199.296 191.106 199.233 190.923C199.141 190.671 198.971 190.451 198.75 190.298C198.529 190.143 198.263 190.062 197.994 190.066Z" fill="#EDF5EF"/>
<path d="M315.636 139.108C314.399 139.1 313.188 138.748 312.141 138.092C311.039 137.401 310.165 136.398 309.632 135.211C309.099 134.023 308.932 132.704 309.149 131.421C309.365 130.138 309.958 128.948 310.852 128.002C311.746 127.056 312.9 126.397 314.17 126.108C315.439 125.818 316.766 125.912 317.981 126.377C319.197 126.841 320.246 127.656 320.998 128.718C321.752 129.78 322.17 131.042 322.205 132.343C322.24 133.644 321.888 134.926 321.195 136.027C320.742 136.76 320.146 137.395 319.442 137.891C318.736 138.388 317.94 138.738 317.096 138.918C316.62 139.044 316.128 139.107 315.636 139.108ZM315.636 126.623C315.197 126.62 314.762 126.662 314.333 126.75C313.575 126.926 312.86 127.249 312.227 127.701C311.595 128.154 311.059 128.727 310.648 129.387C310.229 130.039 309.945 130.769 309.815 131.533C309.684 132.297 309.708 133.08 309.885 133.835C310.052 134.595 310.369 135.315 310.815 135.953C311.263 136.591 311.833 137.135 312.489 137.552C313.824 138.386 315.435 138.66 316.97 138.314C318.41 138.012 319.686 137.183 320.548 135.989C321.409 134.796 321.794 133.323 321.628 131.861C321.461 130.398 320.753 129.051 319.645 128.082C318.537 127.113 317.107 126.593 315.636 126.623ZM315.636 137.107C314.6 137.104 313.597 136.751 312.79 136.105C311.982 135.458 311.418 134.557 311.188 133.549C310.919 132.365 311.129 131.123 311.776 130.095C312.423 129.067 313.451 128.338 314.635 128.069C315.818 127.799 317.061 128.011 318.089 128.657C319.116 129.304 319.846 130.332 320.115 131.516C320.381 132.703 320.165 133.948 319.518 134.978C318.869 136.008 317.839 136.739 316.651 137.012C316.316 137.076 315.977 137.108 315.636 137.107ZM311.791 133.422C312.034 134.438 312.666 135.318 313.551 135.871C314.438 136.424 315.505 136.605 316.524 136.376C317.029 136.266 317.507 136.054 317.927 135.754C318.347 135.454 318.703 135.071 318.97 134.629C319.252 134.197 319.446 133.714 319.538 133.206C319.632 132.699 319.623 132.178 319.51 131.674C319.212 130.724 318.567 129.921 317.702 129.425C316.838 128.928 315.818 128.775 314.847 128.995C313.875 129.215 313.022 129.792 312.456 130.612C311.888 131.432 311.652 132.435 311.791 133.422Z" fill="#FFD0BC"/>
</svg>
