<svg width="798" height="905" viewBox="0 0 798 905" fill="none" xmlns="http://www.w3.org/2000/svg">
<path d="M33.5224 874.196C43.5293 895.001 64.7677 903.933 64.7677 903.933C64.7677 903.933 69.7815 879.132 59.7746 858.326C49.7676 837.521 28.5293 828.59 28.5293 828.59C28.5293 828.59 23.5155 853.39 33.5224 874.196Z" fill="#201F30"/>
<path d="M40.4004 867.351C58.4671 879.537 65.4251 903.741 65.4251 903.741C65.4251 903.741 43.0913 908.188 25.0247 896.003C6.95804 883.817 0 859.613 0 859.613C0 859.613 22.3338 855.166 40.4004 867.351Z" fill="#50A060"/>
<path d="M445.456 263.249H332.733V265.055H445.456V263.249Z" fill="#50A060"/>
<path d="M414.86 264.604H413.25V281.303H414.86V264.604Z" fill="#50A060"/>
<path d="M365.745 264.604H364.135V281.303H365.745V264.604Z" fill="#50A060"/>
<path d="M502.624 349.904H389.901V351.71H502.624V349.904Z" fill="#50A060"/>
<path d="M422.107 333.657H420.496V350.356H422.107V333.657Z" fill="#50A060"/>
<path d="M471.222 333.657H469.611V350.356H471.222V333.657Z" fill="#50A060"/>
<path d="M652.385 390.524H539.661V392.329H652.385V390.524Z" fill="#50A060"/>
<path d="M571.867 374.277H570.257V390.976H571.867V374.277Z" fill="#50A060"/>
<path d="M620.982 374.277H619.372V390.976H620.982V374.277Z" fill="#50A060"/>
<path d="M641.112 809.358H528.389V811.163H641.112V809.358Z" fill="#50A060"/>
<path d="M560.596 793.11H558.986V809.809H560.596V793.11Z" fill="#50A060"/>
<path d="M609.71 793.11H608.1V809.809H609.71V793.11Z" fill="#50A060"/>
<path d="M448.677 519.605H335.954V521.41H448.677V519.605Z" fill="#50A060"/>
<path d="M368.161 503.357H366.551V520.056H368.161V503.357Z" fill="#50A060"/>
<path d="M417.276 503.357H415.666V520.056H417.276V503.357Z" fill="#50A060"/>
<path d="M484.105 737.145H371.381V738.95H484.105V737.145Z" fill="#50A060"/>
<path d="M403.589 720.897H401.978V737.596H403.589V720.897Z" fill="#50A060"/>
<path d="M452.703 720.897H451.093V737.596H452.703V720.897Z" fill="#50A060"/>
<path d="M664.462 671.251H551.739V673.056H664.462V671.251Z" fill="#50A060"/>
<path d="M583.945 655.003H582.335V671.702H583.945V655.003Z" fill="#50A060"/>
<path d="M633.06 655.003H631.45V671.702H633.06V655.003Z" fill="#50A060"/>
<path d="M161.233 549.392H48.5099V551.198H161.233V549.392Z" fill="#50A060"/>
<path d="M80.717 533.144H79.1067V549.843H80.717V533.144Z" fill="#50A060"/>
<path d="M129.832 533.144H128.222V549.843H129.832V533.144Z" fill="#50A060"/>
<path d="M200.686 282.206H87.9633V284.011H200.686V282.206Z" fill="#50A060"/>
<path d="M170.09 283.56H168.48V300.259H170.09V283.56Z" fill="#50A060"/>
<path d="M120.975 283.56H119.365V300.259H120.975V283.56Z" fill="#50A060"/>
<path d="M336.108 460.029H223.385V461.834H336.108V460.029Z" fill="#50A060"/>
<path d="M305.512 461.383H303.901V478.082H305.512V461.383Z" fill="#50A060"/>
<path d="M256.397 461.383H254.786V478.082H256.397V461.383Z" fill="#50A060"/>
<path d="M122.586 459.126H9.86255V460.932H122.586V459.126Z" fill="#50A060"/>
<path d="M91.9895 460.48H90.3792V477.18H91.9895V460.48Z" fill="#50A060"/>
<path d="M42.8735 460.48H41.2632V477.18H42.8735V460.48Z" fill="#50A060"/>
<path d="M257.853 368.86H145.13V370.666H257.853V368.86Z" fill="#50A060"/>
<path d="M177.337 352.613H175.727V369.312H177.337V352.613Z" fill="#50A060"/>
<path d="M226.452 352.613H224.842V369.312H226.452V352.613Z" fill="#50A060"/>
</svg>
